<svg width="200" height="200" viewBox="0 0 300 300" fill="none" xmlns="http://www.w3.org/2000/svg">
<g id="bookAppointment">
<circle id="Ellipse 6" cx="150" cy="150" r="150" fill="#FDE5AC"/>
<path id="Book" d="M112.92 115.96C111.693 115.907 110.547 115.733 109.48 115.44C108.44 115.147 107.52 114.653 106.72 113.96C105.92 113.24 105.293 112.253 104.84 111C104.413 109.747 104.2 108.147 104.2 106.2C104.2 104.307 104.453 102.667 104.96 101.28C105.493 99.8933 106.12 98.7867 106.84 97.96C107.56 97.1333 108.213 96.6267 108.8 96.44L108.6 95.68H107.92C106.693 95.68 105.72 95.2933 105 94.52C104.307 93.72 103.947 92.6533 103.92 91.32C103.893 89.9867 104.24 88.92 104.96 88.12C105.707 87.2933 106.693 86.88 107.92 86.88H118.92C121.8 86.88 123.88 87.5733 125.16 88.96C126.44 90.32 127.08 92.0933 127.08 94.28C127.08 96.04 126.667 97.5067 125.84 98.68C125.04 99.8533 123.827 100.56 122.2 100.8V101.4C123.96 101.48 125.387 102.093 126.48 103.24C127.6 104.36 128.16 106.027 128.16 108.24C128.16 110.64 127.467 112.547 126.08 113.96C124.693 115.347 122.413 116.027 119.24 116L112.92 115.96ZM111.84 98C111.84 98.5867 111.947 98.9733 112.16 99.16C112.373 99.3467 112.773 99.44 113.36 99.44H117.04C118.053 99.44 118.827 99.2933 119.36 99C119.893 98.68 120.16 98.0667 120.16 97.16C120.16 96.2267 119.893 95.6133 119.36 95.32C118.827 95.0267 118.053 94.88 117.04 94.88H113.36C112.773 94.88 112.373 94.96 112.16 95.12C111.947 95.28 111.84 95.6667 111.84 96.28V98ZM111.84 106.04C111.84 106.627 111.947 107.027 112.16 107.24C112.4 107.453 112.827 107.56 113.44 107.56H117.56C118.6 107.56 119.4 107.373 119.96 107C120.52 106.627 120.8 105.96 120.8 105C120.8 104.04 120.52 103.387 119.96 103.04C119.4 102.667 118.6 102.48 117.56 102.48H113.44C112.827 102.48 112.4 102.573 112.16 102.76C111.947 102.947 111.84 103.333 111.84 103.92V106.04ZM139.902 116.08C136.782 116.08 134.289 115.16 132.422 113.32C130.582 111.453 129.662 108.827 129.662 105.44C129.662 103.36 130.089 101.533 130.942 99.96C131.796 98.3867 132.982 97.16 134.502 96.28C136.049 95.3733 137.849 94.92 139.902 94.92C142.196 94.92 144.102 95.3733 145.622 96.28C147.142 97.16 148.276 98.3867 149.022 99.96C149.796 101.533 150.182 103.36 150.182 105.44C150.182 108.827 149.329 111.453 147.622 113.32C145.942 115.16 143.369 116.08 139.902 116.08ZM134.422 104.76C134.422 105.587 134.836 106.173 135.662 106.52C136.489 106.84 137.902 107 139.902 107C141.902 107 143.316 106.84 144.142 106.52C144.969 106.173 145.382 105.587 145.382 104.76C145.382 103.96 144.969 103.4 144.142 103.08C143.316 102.76 141.902 102.6 139.902 102.6C137.902 102.6 136.489 102.76 135.662 103.08C134.836 103.4 134.422 103.96 134.422 104.76ZM162.207 116.08C159.087 116.08 156.594 115.16 154.727 113.32C152.887 111.453 151.967 108.827 151.967 105.44C151.967 103.36 152.394 101.533 153.247 99.96C154.1 98.3867 155.287 97.16 156.807 96.28C158.354 95.3733 160.154 94.92 162.207 94.92C164.5 94.92 166.407 95.3733 167.927 96.28C169.447 97.16 170.58 98.3867 171.327 99.96C172.1 101.533 172.487 103.36 172.487 105.44C172.487 108.827 171.634 111.453 169.927 113.32C168.247 115.16 165.674 116.08 162.207 116.08ZM156.727 104.76C156.727 105.587 157.14 106.173 157.967 106.52C158.794 106.84 160.207 107 162.207 107C164.207 107 165.62 106.84 166.447 106.52C167.274 106.173 167.687 105.587 167.687 104.76C167.687 103.96 167.274 103.4 166.447 103.08C165.62 102.76 164.207 102.6 162.207 102.6C160.207 102.6 158.794 102.76 157.967 103.08C157.14 103.4 156.727 103.96 156.727 104.76ZM177.881 116C176.708 116 175.774 115.653 175.081 114.96C174.388 114.24 174.041 113.36 174.041 112.32V89.16C174.041 88.04 174.374 87.0933 175.041 86.32C175.734 85.5467 176.708 85.16 177.961 85.16C179.188 85.16 180.108 85.5467 180.721 86.32C181.361 87.0933 181.681 88.0533 181.681 89.2V101.32L181.801 101.36C181.934 100.24 182.281 99.2133 182.841 98.28C183.401 97.32 184.188 96.5467 185.201 95.96C186.214 95.3733 187.454 95.08 188.921 95.08C190.894 95.08 192.481 95.6267 193.681 96.72C194.881 97.8133 195.481 99.3067 195.481 101.2C195.481 102.507 195.214 103.547 194.681 104.32C194.174 105.067 193.481 105.587 192.601 105.88C191.721 106.173 190.748 106.307 189.681 106.28V106.96C192.054 106.96 193.734 107.44 194.721 108.4C195.734 109.333 196.241 110.52 196.241 111.96C196.241 113.293 195.841 114.32 195.041 115.04C194.241 115.76 193.281 116.107 192.161 116.08C190.934 116.053 189.921 115.693 189.121 115C188.321 114.307 187.654 113.373 187.121 112.2L185.401 108.56C185.054 107.84 184.601 107.32 184.041 107C183.508 106.68 182.721 106.56 181.681 106.64V112.32C181.681 113.36 181.334 114.24 180.641 114.96C179.974 115.653 179.054 116 177.881 116ZM182.521 103.92C182.521 104.293 182.708 104.573 183.081 104.76C183.481 104.92 184.294 105 185.521 105C186.721 105 187.521 104.92 187.921 104.76C188.321 104.6 188.521 104.32 188.521 103.92C188.521 103.547 188.321 103.267 187.921 103.08C187.521 102.893 186.734 102.8 185.561 102.8C184.308 102.8 183.481 102.893 183.081 103.08C182.708 103.267 182.521 103.547 182.521 103.92Z" fill="black"/>
<path id="Appointment" d="M32.52 162C30.7333 161.733 29.5733 160.92 29.04 159.56C28.5067 158.173 28.6133 156.427 29.36 154.32L34.64 139.32C35.12 137.933 35.6667 136.747 36.28 135.76C36.92 134.773 37.7067 134.013 38.64 133.48C39.6 132.947 40.7867 132.68 42.2 132.68C44.3333 132.68 45.9333 133.267 47 134.44C48.0933 135.613 49 137.24 49.72 139.32L54.96 154.32C55.7067 156.427 55.84 158.173 55.36 159.56C54.9067 160.92 53.7733 161.733 51.96 162C50.4933 162.187 49.2133 162.013 48.12 161.48C47.0533 160.947 46.4133 160.08 46.2 158.88C46.04 158.08 46.0133 157.413 46.12 156.88C46.2533 156.347 46.3733 155.92 46.48 155.6C46.56 155.333 46.56 155.08 46.48 154.84C46.4267 154.573 46.2267 154.44 45.88 154.44H38.44C38.0933 154.44 37.88 154.573 37.8 154.84C37.7467 155.08 37.7733 155.333 37.88 155.6C37.9867 155.92 38.0933 156.347 38.2 156.88C38.3067 157.413 38.2933 158.08 38.16 158.88C37.9467 160.08 37.32 160.947 36.28 161.48C35.24 162.013 33.9867 162.187 32.52 162ZM45.12 148.84L43.04 142.32C42.9867 142.053 42.8933 141.853 42.76 141.72C42.6533 141.56 42.4667 141.48 42.2 141.48C41.9333 141.48 41.7333 141.56 41.6 141.72C41.4933 141.853 41.4 142.053 41.32 142.32L39.28 148.84H45.12ZM71.2088 162C69.7421 162 68.5154 161.547 67.5288 160.64C66.5688 159.733 65.9554 158.56 65.6888 157.12H64.9688V166.32C64.9688 167.413 64.6621 168.333 64.0488 169.08C63.4354 169.853 62.5021 170.24 61.2487 170.24C60.0488 170.24 59.1154 169.853 58.4488 169.08C57.8088 168.333 57.4888 167.387 57.4888 166.24V151.28C57.4888 149.947 57.4354 148.827 57.3288 147.92C57.2488 146.987 57.1688 146.147 57.0888 145.4C56.9821 144.28 57.2088 143.333 57.7688 142.56C58.3288 141.76 59.2354 141.28 60.4888 141.12C62.1154 140.907 63.2621 141.2 63.9288 142C64.6221 142.773 64.9688 143.987 64.9688 145.64V147.56L65.1288 147.6C65.2621 146.56 65.5688 145.547 66.0488 144.56C66.5554 143.547 67.2621 142.72 68.1688 142.08C69.0754 141.413 70.2221 141.08 71.6088 141.08C73.9288 141.08 75.6488 142.013 76.7688 143.88C77.9154 145.72 78.4888 148.187 78.4888 151.28C78.4888 158.427 76.0621 162 71.2088 162ZM64.8088 151.2C64.8088 151.627 64.8621 151.96 64.9688 152.2C65.1288 152.707 65.4621 153.08 65.9688 153.32C66.5021 153.533 67.2888 153.64 68.3288 153.64C69.6621 153.64 70.5688 153.44 71.0488 153.04C71.5554 152.64 71.8088 152.027 71.8088 151.2C71.8088 150.347 71.5688 149.733 71.0888 149.36C70.6088 148.96 69.7021 148.76 68.3688 148.76C67.3021 148.76 66.5021 148.88 65.9688 149.12C65.4621 149.333 65.1288 149.693 64.9688 150.2C64.8621 150.44 64.8088 150.773 64.8088 151.2ZM94.6463 162C93.1796 162 91.9529 161.547 90.9663 160.64C90.0063 159.733 89.3929 158.56 89.1263 157.12H88.4063V166.32C88.4063 167.413 88.0996 168.333 87.4863 169.08C86.8729 169.853 85.9396 170.24 84.6862 170.24C83.4863 170.24 82.5529 169.853 81.8863 169.08C81.2463 168.333 80.9263 167.387 80.9263 166.24V151.28C80.9263 149.947 80.8729 148.827 80.7663 147.92C80.6863 146.987 80.6063 146.147 80.5263 145.4C80.4196 144.28 80.6463 143.333 81.2063 142.56C81.7663 141.76 82.6729 141.28 83.9263 141.12C85.5529 140.907 86.6996 141.2 87.3663 142C88.0596 142.773 88.4063 143.987 88.4063 145.64V147.56L88.5663 147.6C88.6996 146.56 89.0063 145.547 89.4863 144.56C89.9929 143.547 90.6996 142.72 91.6063 142.08C92.5129 141.413 93.6596 141.08 95.0463 141.08C97.3663 141.08 99.0863 142.013 100.206 143.88C101.353 145.72 101.926 148.187 101.926 151.28C101.926 158.427 99.4996 162 94.6463 162ZM88.2463 151.2C88.2463 151.627 88.2996 151.96 88.4063 152.2C88.5663 152.707 88.8996 153.08 89.4062 153.32C89.9396 153.533 90.7263 153.64 91.7663 153.64C93.0996 153.64 94.0063 153.44 94.4863 153.04C94.9929 152.64 95.2463 152.027 95.2463 151.2C95.2463 150.347 95.0063 149.733 94.5263 149.36C94.0463 148.96 93.1396 148.76 91.8063 148.76C90.7396 148.76 89.9396 148.88 89.4062 149.12C88.8996 149.333 88.5663 149.693 88.4063 150.2C88.2996 150.44 88.2463 150.773 88.2463 151.2ZM113.613 162.08C110.493 162.08 108 161.16 106.133 159.32C104.293 157.453 103.373 154.827 103.373 151.44C103.373 149.36 103.8 147.533 104.653 145.96C105.506 144.387 106.693 143.16 108.213 142.28C109.76 141.373 111.56 140.92 113.613 140.92C115.906 140.92 117.813 141.373 119.333 142.28C120.853 143.16 121.986 144.387 122.733 145.96C123.506 147.533 123.893 149.36 123.893 151.44C123.893 154.827 123.04 157.453 121.333 159.32C119.653 161.16 117.08 162.08 113.613 162.08ZM108.133 150.76C108.133 151.587 108.546 152.173 109.373 152.52C110.2 152.84 111.613 153 113.613 153C115.613 153 117.026 152.84 117.853 152.52C118.68 152.173 119.093 151.587 119.093 150.76C119.093 149.96 118.68 149.4 117.853 149.08C117.026 148.76 115.613 148.6 113.613 148.6C111.613 148.6 110.2 148.76 109.373 149.08C108.546 149.4 108.133 149.96 108.133 150.76ZM125.678 136.44C125.678 135.293 126.024 134.373 126.718 133.68C127.438 132.96 128.424 132.6 129.678 132.6C131.011 132.6 131.998 132.947 132.638 133.64C133.304 134.333 133.638 135.253 133.638 136.4C133.638 137.52 133.304 138.427 132.638 139.12C131.998 139.787 131.011 140.12 129.678 140.12C128.371 140.12 127.371 139.787 126.678 139.12C126.011 138.427 125.678 137.533 125.678 136.44ZM129.678 162C128.424 162 127.491 161.653 126.878 160.96C126.264 160.267 125.958 159.4 125.958 158.36V144.68C125.958 143.533 126.264 142.627 126.878 141.96C127.491 141.293 128.424 140.96 129.678 140.96C130.931 140.96 131.864 141.293 132.478 141.96C133.118 142.627 133.438 143.507 133.438 144.6V158.36C133.438 159.4 133.104 160.267 132.438 160.96C131.798 161.653 130.878 162 129.678 162ZM139.523 162C138.349 162 137.403 161.653 136.683 160.96C135.989 160.24 135.643 159.36 135.643 158.32V145.08C135.643 143.96 135.976 143.013 136.643 142.24C137.309 141.467 138.269 141.08 139.523 141.08C140.749 141.08 141.683 141.467 142.323 142.24C142.963 143.013 143.283 143.987 143.283 145.16V147.16H144.003C144.003 145.64 144.269 144.44 144.803 143.56C145.363 142.68 146.069 142.053 146.923 141.68C147.776 141.28 148.629 141.08 149.483 141.08C151.536 141.08 153.043 141.827 154.003 143.32C154.963 144.787 155.443 146.88 155.443 149.6V158.32C155.443 159.36 155.096 160.24 154.403 160.96C153.709 161.653 152.776 162 151.603 162C150.403 162 149.443 161.653 148.723 160.96C148.029 160.24 147.683 159.36 147.683 158.32V151.24C147.683 150.28 147.496 149.533 147.123 149C146.776 148.467 146.256 148.2 145.563 148.2C144.763 148.2 144.176 148.493 143.803 149.08C143.456 149.667 143.283 150.413 143.283 151.32V158.32C143.283 159.36 142.949 160.24 142.283 160.96C141.616 161.653 140.696 162 139.523 162ZM168.336 162.12C166.923 162.12 165.643 161.8 164.496 161.16C163.376 160.52 162.496 159.613 161.856 158.44C161.216 157.24 160.896 155.84 160.896 154.24V147.2L159.416 147.4C158.616 147.507 157.91 147.227 157.296 146.56C156.683 145.893 156.376 145.053 156.376 144.04C156.376 143.027 156.683 142.2 157.296 141.56C157.91 140.893 158.616 140.613 159.416 140.72L160.896 140.92L160.856 138.2C160.83 137.133 161.136 136.293 161.776 135.68C162.416 135.04 163.35 134.72 164.576 134.72C165.803 134.72 166.75 135.04 167.416 135.68C168.083 136.293 168.39 137.133 168.336 138.2L168.256 140.92L170.376 140.64C171.816 140.427 172.91 140.693 173.656 141.44C174.403 142.16 174.776 143.027 174.776 144.04C174.776 145.053 174.403 145.933 173.656 146.68C172.936 147.4 171.883 147.667 170.496 147.48L168.256 147.2V153.16C168.256 153.507 168.376 153.827 168.616 154.12C168.856 154.387 169.15 154.467 169.496 154.36C169.896 154.253 170.31 154.027 170.736 153.68C171.19 153.333 171.763 153.16 172.456 153.16C173.496 153.16 174.296 153.533 174.856 154.28C175.416 155.027 175.696 155.947 175.696 157.04C175.696 157.893 175.39 158.72 174.776 159.52C174.19 160.293 173.35 160.92 172.256 161.4C171.163 161.88 169.856 162.12 168.336 162.12ZM181.238 162C180.038 162 179.078 161.653 178.358 160.96C177.665 160.24 177.318 159.36 177.318 158.32V145.08C177.318 143.96 177.652 143.013 178.318 142.24C179.012 141.467 179.985 141.08 181.238 141.08C182.465 141.08 183.385 141.467 183.998 142.24C184.612 143.013 184.918 143.987 184.918 145.16V147.16H185.638C185.638 144.893 186.118 143.32 187.078 142.44C188.038 141.533 189.225 141.08 190.638 141.08C192.452 141.08 193.785 141.64 194.638 142.76C195.492 143.88 195.918 145.347 195.918 147.16H196.638C196.638 145.64 196.892 144.44 197.398 143.56C197.905 142.68 198.545 142.053 199.318 141.68C200.118 141.28 200.945 141.08 201.798 141.08C203.532 141.08 204.798 141.493 205.598 142.32C206.425 143.147 206.958 144.253 207.198 145.64C207.438 147.027 207.558 148.587 207.558 150.32V158.32C207.558 159.36 207.198 160.24 206.478 160.96C205.785 161.653 204.852 162 203.678 162C202.505 162 201.558 161.653 200.838 160.96C200.118 160.24 199.758 159.36 199.758 158.32V151.24C199.758 150.28 199.638 149.533 199.398 149C199.158 148.467 198.678 148.2 197.958 148.2C197.185 148.2 196.678 148.493 196.438 149.08C196.225 149.667 196.118 150.413 196.118 151.32V158.32C196.118 159.36 195.785 160.24 195.118 160.96C194.452 161.653 193.532 162 192.358 162C191.158 162 190.198 161.653 189.478 160.96C188.785 160.24 188.438 159.36 188.438 158.32V151.24C188.438 150.28 188.318 149.533 188.078 149C187.838 148.467 187.372 148.2 186.678 148.2C185.905 148.2 185.412 148.493 185.198 149.08C185.012 149.667 184.918 150.413 184.918 151.32V158.32C184.918 159.36 184.598 160.24 183.958 160.96C183.318 161.653 182.412 162 181.238 162ZM209.467 151.6C209.467 149.493 209.88 147.64 210.707 146.04C211.56 144.44 212.76 143.187 214.307 142.28C215.88 141.373 217.747 140.92 219.907 140.92C221.587 140.92 223.094 141.227 224.427 141.84C225.787 142.453 226.854 143.28 227.627 144.32C228.4 145.333 228.787 146.453 228.787 147.68C228.787 148.96 228.414 149.867 227.667 150.4C226.92 150.933 225.814 151.2 224.347 151.2H215.947C215.947 151.893 216.214 152.467 216.747 152.92C217.307 153.373 218.24 153.6 219.547 153.6C220.214 153.6 220.827 153.533 221.387 153.4C221.974 153.267 222.56 153.147 223.147 153.04C223.76 152.907 224.44 152.84 225.187 152.84C226.254 152.84 227.134 153.227 227.827 154C228.52 154.747 228.867 155.787 228.867 157.12C228.867 158.693 228.054 159.92 226.427 160.8C224.827 161.68 222.72 162.12 220.107 162.12C218.267 162.12 216.534 161.76 214.907 161.04C213.307 160.32 212 159.187 210.987 157.64C209.974 156.067 209.467 154.053 209.467 151.6ZM222.427 149.88C222.827 149.88 222.96 149.693 222.827 149.32C222.72 148.947 222.4 148.56 221.867 148.16C221.334 147.76 220.56 147.56 219.547 147.56C218.374 147.56 217.494 147.813 216.907 148.32C216.347 148.827 216.067 149.347 216.067 149.88H222.427ZM234.562 162C233.388 162 232.442 161.653 231.722 160.96C231.028 160.24 230.682 159.36 230.682 158.32V145.08C230.682 143.96 231.015 143.013 231.682 142.24C232.348 141.467 233.308 141.08 234.562 141.08C235.788 141.08 236.722 141.467 237.362 142.24C238.002 143.013 238.322 143.987 238.322 145.16V147.16H239.042C239.042 145.64 239.308 144.44 239.842 143.56C240.402 142.68 241.108 142.053 241.962 141.68C242.815 141.28 243.668 141.08 244.522 141.08C246.575 141.08 248.082 141.827 249.042 143.32C250.002 144.787 250.482 146.88 250.482 149.6V158.32C250.482 159.36 250.135 160.24 249.442 160.96C248.748 161.653 247.815 162 246.642 162C245.442 162 244.482 161.653 243.762 160.96C243.068 160.24 242.722 159.36 242.722 158.32V151.24C242.722 150.28 242.535 149.533 242.162 149C241.815 148.467 241.295 148.2 240.602 148.2C239.802 148.2 239.215 148.493 238.842 149.08C238.495 149.667 238.322 150.413 238.322 151.32V158.32C238.322 159.36 237.988 160.24 237.322 160.96C236.655 161.653 235.735 162 234.562 162ZM263.375 162.12C261.962 162.12 260.682 161.8 259.535 161.16C258.415 160.52 257.535 159.613 256.895 158.44C256.255 157.24 255.935 155.84 255.935 154.24V147.2L254.455 147.4C253.655 147.507 252.949 147.227 252.335 146.56C251.722 145.893 251.415 145.053 251.415 144.04C251.415 143.027 251.722 142.2 252.335 141.56C252.949 140.893 253.655 140.613 254.455 140.72L255.935 140.92L255.895 138.2C255.869 137.133 256.175 136.293 256.815 135.68C257.455 135.04 258.389 134.72 259.615 134.72C260.842 134.72 261.789 135.04 262.455 135.68C263.122 136.293 263.429 137.133 263.375 138.2L263.295 140.92L265.415 140.64C266.855 140.427 267.949 140.693 268.695 141.44C269.442 142.16 269.815 143.027 269.815 144.04C269.815 145.053 269.442 145.933 268.695 146.68C267.975 147.4 266.922 147.667 265.535 147.48L263.295 147.2V153.16C263.295 153.507 263.415 153.827 263.655 154.12C263.895 154.387 264.189 154.467 264.535 154.36C264.935 154.253 265.349 154.027 265.775 153.68C266.229 153.333 266.802 153.16 267.495 153.16C268.535 153.16 269.335 153.533 269.895 154.28C270.455 155.027 270.735 155.947 270.735 157.04C270.735 157.893 270.429 158.72 269.815 159.52C269.229 160.293 268.389 160.92 267.295 161.4C266.202 161.88 264.895 162.12 263.375 162.12Z" fill="black"/>
</g>
</svg>
