<svg width="200" height="46" viewBox="0 0 200 46" fill="none" xmlns="http://www.w3.org/2000/svg">
<path id="Gel Extension" d="M9.152 37.192C7.44533 37.192 5.96267 36.7013 4.704 35.72C3.44533 34.7173 2.47467 33.352 1.792 31.624C1.10933 29.8747 0.768 27.9013 0.768 25.704C0.768 23.656 1.06667 21.864 1.664 20.328C2.28267 18.7707 3.11467 17.48 4.16 16.456C5.22667 15.4107 6.45333 14.632 7.84 14.12C9.248 13.5867 10.7307 13.32 12.288 13.32C15.1467 13.32 17.2587 13.7253 18.624 14.536C20.0107 15.3253 20.704 16.3493 20.704 17.608C20.704 18.5893 20.448 19.4533 19.936 20.2C19.4453 20.9467 18.6987 21.32 17.696 21.32C17.0133 21.32 16.3627 21.256 15.744 21.128C15.1467 21 14.528 20.8827 13.888 20.776C13.2693 20.648 12.576 20.584 11.808 20.584C10.1227 20.584 8.90667 21.064 8.16 22.024C7.43467 22.984 7.072 24.1893 7.072 25.64C7.072 26.8133 7.30667 27.7733 7.776 28.52C8.26667 29.2667 8.90667 29.8213 9.696 30.184C10.5067 30.5253 11.4027 30.696 12.384 30.696C13.1947 30.696 13.952 30.5147 14.656 30.152C15.36 29.7893 15.808 29.1173 16 28.136H14.432C13.6853 28.136 13.1093 27.912 12.704 27.464C12.2987 26.9947 12.096 26.3973 12.096 25.672C12.096 24.9467 12.2987 24.36 12.704 23.912C13.1093 23.464 13.6853 23.24 14.432 23.24H18.272C19.6587 23.24 20.6293 23.6133 21.184 24.36C21.76 25.0853 22.048 26.1733 22.048 27.624V33.608C22.048 34.7173 21.7493 35.56 21.152 36.136C20.5547 36.712 19.7653 37 18.784 37C17.7387 37 16.9173 36.712 16.32 36.136C15.7227 35.56 15.424 34.7173 15.424 33.608V31.624H14.848C14.848 33.5653 14.3573 34.984 13.376 35.88C12.3947 36.7547 11.0827 37.192 9.44 37.192H9.152ZM23.361 28.68C23.361 26.9947 23.6917 25.512 24.353 24.232C25.0357 22.952 25.9957 21.9493 27.233 21.224C28.4917 20.4987 29.985 20.136 31.713 20.136C33.057 20.136 34.2623 20.3813 35.329 20.872C36.417 21.3627 37.2703 22.024 37.889 22.856C38.5077 23.6667 38.817 24.5627 38.817 25.544C38.817 26.568 38.5183 27.2933 37.921 27.72C37.3237 28.1467 36.4383 28.36 35.265 28.36H28.545C28.545 28.9147 28.7583 29.3733 29.185 29.736C29.633 30.0987 30.3797 30.28 31.425 30.28C31.9583 30.28 32.449 30.2267 32.897 30.12C33.3663 30.0133 33.8357 29.9173 34.305 29.832C34.7957 29.7253 35.3397 29.672 35.937 29.672C36.7903 29.672 37.4943 29.9813 38.049 30.6C38.6037 31.1973 38.881 32.0293 38.881 33.096C38.881 34.3547 38.2303 35.336 36.929 36.04C35.649 36.744 33.9637 37.096 31.873 37.096C30.401 37.096 29.0143 36.808 27.713 36.232C26.433 35.656 25.3877 34.7493 24.577 33.512C23.7663 32.2533 23.361 30.6427 23.361 28.68ZM33.729 27.304C34.049 27.304 34.1557 27.1547 34.049 26.856C33.9637 26.5573 33.7077 26.248 33.281 25.928C32.8543 25.608 32.2357 25.448 31.425 25.448C30.4863 25.448 29.7823 25.6507 29.313 26.056C28.865 26.4613 28.641 26.8773 28.641 27.304H33.729ZM43.3408 37C42.2954 37 41.5061 36.7227 40.9728 36.168C40.4608 35.6133 40.2048 34.92 40.2048 34.088V15.528C40.2048 14.6107 40.4608 13.8533 40.9728 13.256C41.5061 12.6373 42.2954 12.328 43.3408 12.328C44.2794 12.328 45.0048 12.6373 45.5168 13.256C46.0288 13.8533 46.2848 14.5893 46.2848 15.464V34.088C46.2848 34.92 46.0288 35.6133 45.5168 36.168C45.0048 36.7227 44.2794 37 43.3408 37ZM61.6133 36.936C60.5679 36.936 59.5653 36.84 58.6053 36.648C57.6666 36.456 56.8346 36.0933 56.1093 35.56C55.4053 35.0053 54.8399 34.216 54.4133 33.192C54.0079 32.1467 53.8053 30.7813 53.8053 29.096C53.8053 27.5813 54.0079 26.28 54.4133 25.192C54.8186 24.104 55.2986 23.24 55.8533 22.6C56.4293 21.96 56.9519 21.5653 57.4213 21.416L57.2613 20.808H56.7173C55.7359 20.808 54.9573 20.4987 54.3813 19.88C53.8266 19.24 53.5386 18.376 53.5173 17.288C53.4959 16.2213 53.7733 15.368 54.3493 14.728C54.9466 14.088 55.7359 13.768 56.7173 13.768H68.2053C70.4879 13.768 71.6293 14.8347 71.6293 16.968C71.6293 17.928 71.3519 18.696 70.7973 19.272C70.2426 19.848 69.3786 20.136 68.2053 20.136H61.5813C60.7919 20.136 60.3973 20.5947 60.3973 21.512V23.912C61.4639 23.6773 62.5733 23.4 63.7253 23.08C64.8986 22.76 66.0079 22.6 67.0533 22.6C68.0559 22.6 68.8026 22.824 69.2933 23.272C69.8053 23.6987 70.0613 24.2853 70.0613 25.032C70.0613 25.8 69.8053 26.408 69.2933 26.856C68.8026 27.2827 68.0559 27.5067 67.0533 27.528C66.0079 27.5493 64.8986 27.4 63.7253 27.08C62.5519 26.76 61.4319 26.4827 60.3653 26.248V30.44C60.3653 30.8453 60.4719 31.1333 60.6853 31.304C60.9199 31.4533 61.2826 31.3893 61.7733 31.112C62.8399 30.4933 63.8853 30.0027 64.9093 29.64C65.9333 29.256 66.9359 29.064 67.9173 29.064C69.3039 29.064 70.3493 29.4267 71.0533 30.152C71.7786 30.8773 72.1413 31.8267 72.1413 33C72.1413 34.2587 71.7573 35.2293 70.9893 35.912C70.2426 36.5947 69.0266 36.936 67.3413 36.936H61.6133ZM76.6295 37.128C75.3922 37.128 74.4535 36.776 73.8135 36.072C73.1948 35.3467 72.8855 34.4933 72.8855 33.512C72.8855 32.8933 73.0455 32.2533 73.3655 31.592C73.6855 30.9307 74.2188 30.3653 74.9655 29.896C75.3922 29.6187 75.9362 29.4053 76.5975 29.256C77.2802 29.0853 77.8882 28.9467 78.4215 28.84C77.2482 28.4773 76.3308 28.0507 75.6695 27.56C75.0082 27.0693 74.4642 26.568 74.0375 26.056C73.4402 25.2453 73.1628 24.3707 73.2055 23.432C73.2695 22.472 73.7068 21.6507 74.5175 20.968C75.0935 20.4773 75.7228 20.2213 76.4055 20.2C77.1095 20.1787 77.7815 20.36 78.4215 20.744C79.0615 21.128 79.5842 21.6933 79.9895 22.44C80.4588 23.272 80.7895 23.9973 80.9815 24.616C81.1948 25.2133 81.4295 25.7573 81.6855 26.248C81.9628 26.7387 82.4002 27.2293 82.9975 27.72C83.2535 27.6347 83.4775 27.5173 83.6695 27.368C83.8615 27.2187 84.0748 26.92 84.3095 26.472C83.7762 26.344 83.2962 26.024 82.8695 25.512C82.4428 25 82.2295 24.2853 82.2295 23.368C82.2295 22.3867 82.5282 21.608 83.1255 21.032C83.7228 20.4347 84.6082 20.136 85.7815 20.136C86.7415 20.136 87.5202 20.456 88.1175 21.096C88.7148 21.7147 89.0135 22.4933 89.0135 23.432C89.0135 24.4347 88.8108 25.2347 88.4055 25.832C88.0215 26.408 87.4988 26.9093 86.8375 27.336C86.4962 27.592 86.0802 27.816 85.5895 28.008C85.0988 28.1787 84.5762 28.328 84.0215 28.456C84.8962 28.584 85.7282 28.8293 86.5175 29.192C87.3068 29.5547 88.0322 30.0773 88.6935 30.76C89.1842 31.2507 89.5148 31.848 89.6855 32.552C89.8775 33.2347 89.8775 33.9173 89.6855 34.6C89.5148 35.2827 89.1415 35.8587 88.5655 36.328C87.9682 36.7973 87.3068 37.0427 86.5815 37.064C85.8562 37.0853 85.1628 36.9147 84.5015 36.552C83.8615 36.168 83.3495 35.624 82.9655 34.92C82.5815 34.216 82.2828 33.5227 82.0695 32.84C81.8562 32.136 81.6108 31.496 81.3335 30.92C81.0775 30.3227 80.6935 29.8427 80.1815 29.48C79.8402 29.672 79.6375 29.9067 79.5735 30.184C79.5095 30.44 79.5202 30.7387 79.6055 31.08C79.7122 31.4 79.8188 31.752 79.9255 32.136C80.0535 32.4987 80.1175 32.8827 80.1175 33.288C80.1175 33.928 79.9895 34.5467 79.7335 35.144C79.4775 35.72 79.0828 36.2 78.5495 36.584C78.0375 36.9467 77.3975 37.128 76.6295 37.128ZM99.4565 37.096C98.3258 37.096 97.3018 36.84 96.3845 36.328C95.4885 35.816 94.7845 35.0907 94.2725 34.152C93.7605 33.192 93.5045 32.072 93.5045 30.792V25.16L92.3205 25.32C91.6805 25.4053 91.1152 25.1813 90.6245 24.648C90.1338 24.1147 89.8885 23.4427 89.8885 22.632C89.8885 21.8213 90.1338 21.16 90.6245 20.648C91.1152 20.1147 91.6805 19.8907 92.3205 19.976L93.5045 20.136L93.4725 17.96C93.4512 17.1067 93.6965 16.4347 94.2085 15.944C94.7205 15.432 95.4672 15.176 96.4485 15.176C97.4298 15.176 98.1872 15.432 98.7205 15.944C99.2538 16.4347 99.4992 17.1067 99.4565 17.96L99.3925 20.136L101.089 19.912C102.241 19.7413 103.115 19.9547 103.713 20.552C104.31 21.128 104.609 21.8213 104.609 22.632C104.609 23.4427 104.31 24.1467 103.713 24.744C103.137 25.32 102.294 25.5333 101.185 25.384L99.3925 25.16V29.928C99.3925 30.2053 99.4885 30.4613 99.6805 30.696C99.8725 30.9093 100.107 30.9733 100.385 30.888C100.705 30.8027 101.035 30.6213 101.377 30.344C101.739 30.0667 102.198 29.928 102.753 29.928C103.585 29.928 104.225 30.2267 104.673 30.824C105.121 31.4213 105.345 32.1573 105.345 33.032C105.345 33.7147 105.099 34.376 104.609 35.016C104.139 35.6347 103.467 36.136 102.593 36.52C101.718 36.904 100.673 37.096 99.4565 37.096ZM105.924 28.68C105.924 26.9947 106.254 25.512 106.916 24.232C107.598 22.952 108.558 21.9493 109.796 21.224C111.054 20.4987 112.548 20.136 114.276 20.136C115.62 20.136 116.825 20.3813 117.892 20.872C118.98 21.3627 119.833 22.024 120.452 22.856C121.07 23.6667 121.38 24.5627 121.38 25.544C121.38 26.568 121.081 27.2933 120.484 27.72C119.886 28.1467 119.001 28.36 117.828 28.36H111.108C111.108 28.9147 111.321 29.3733 111.748 29.736C112.196 30.0987 112.942 30.28 113.988 30.28C114.521 30.28 115.012 30.2267 115.46 30.12C115.929 30.0133 116.398 29.9173 116.868 29.832C117.358 29.7253 117.902 29.672 118.5 29.672C119.353 29.672 120.057 29.9813 120.612 30.6C121.166 31.1973 121.444 32.0293 121.444 33.096C121.444 34.3547 120.793 35.336 119.492 36.04C118.212 36.744 116.526 37.096 114.436 37.096C112.964 37.096 111.577 36.808 110.276 36.232C108.996 35.656 107.95 34.7493 107.14 33.512C106.329 32.2533 105.924 30.6427 105.924 28.68ZM116.292 27.304C116.612 27.304 116.718 27.1547 116.612 26.856C116.526 26.5573 116.27 26.248 115.844 25.928C115.417 25.608 114.798 25.448 113.988 25.448C113.049 25.448 112.345 25.6507 111.876 26.056C111.428 26.4613 111.204 26.8773 111.204 27.304H116.292ZM125.999 37C125.061 37 124.303 36.7227 123.727 36.168C123.173 35.592 122.895 34.888 122.895 34.056V23.464C122.895 22.568 123.162 21.8107 123.695 21.192C124.229 20.5733 124.997 20.264 125.999 20.264C126.981 20.264 127.727 20.5733 128.239 21.192C128.751 21.8107 129.007 22.5893 129.007 23.528V25.128H129.583C129.583 23.912 129.797 22.952 130.223 22.248C130.671 21.544 131.237 21.0427 131.919 20.744C132.602 20.424 133.285 20.264 133.967 20.264C135.61 20.264 136.815 20.8613 137.583 22.056C138.351 23.2293 138.735 24.904 138.735 27.08V34.056C138.735 34.888 138.458 35.592 137.903 36.168C137.349 36.7227 136.602 37 135.663 37C134.703 37 133.935 36.7227 133.359 36.168C132.805 35.592 132.527 34.888 132.527 34.056V28.392C132.527 27.624 132.378 27.0267 132.079 26.6C131.802 26.1733 131.386 25.96 130.831 25.96C130.191 25.96 129.722 26.1947 129.423 26.664C129.146 27.1333 129.007 27.7307 129.007 28.456V34.056C129.007 34.888 128.741 35.592 128.207 36.168C127.674 36.7227 126.938 37 125.999 37ZM148.459 37.416C146.987 37.416 145.622 37.2773 144.363 37C143.126 36.7013 142.134 36.2427 141.387 35.624C140.641 34.984 140.267 34.1413 140.267 33.096C140.267 32.1787 140.545 31.4213 141.099 30.824C141.654 30.2267 142.39 29.928 143.307 29.928C143.883 29.928 144.459 30.024 145.035 30.216C145.633 30.3867 146.262 30.5573 146.923 30.728C147.585 30.8987 148.299 30.984 149.067 30.984C149.75 30.984 150.209 30.952 150.443 30.888C150.678 30.8027 150.795 30.6533 150.795 30.44C150.795 30.184 150.646 30.0133 150.347 29.928C150.07 29.8427 149.59 29.736 148.907 29.608L146.603 29.16C145.643 28.968 144.705 28.7227 143.787 28.424C142.891 28.104 142.145 27.6347 141.547 27.016C140.971 26.3973 140.683 25.5547 140.683 24.488C140.683 23.0373 141.323 21.9067 142.603 21.096C143.905 20.2853 145.782 19.88 148.235 19.88C149.643 19.88 150.902 20.0187 152.011 20.296C153.142 20.5733 154.038 20.9893 154.699 21.544C155.361 22.0773 155.691 22.7493 155.691 23.56C155.713 24.4347 155.478 25.1387 154.987 25.672C154.497 26.2053 153.878 26.472 153.131 26.472C152.598 26.472 152.054 26.408 151.499 26.28C150.966 26.1307 150.379 25.9813 149.739 25.832C149.121 25.6613 148.406 25.5653 147.595 25.544C147.019 25.5013 146.55 25.5333 146.187 25.64C145.825 25.7467 145.643 25.9173 145.643 26.152C145.643 26.408 145.857 26.5893 146.283 26.696C146.71 26.7813 147.35 26.8987 148.203 27.048L150.475 27.464C151.862 27.6987 152.961 27.9973 153.771 28.36C154.603 28.7013 155.201 29.1813 155.563 29.8C155.926 30.4187 156.107 31.272 156.107 32.36C156.107 33.4907 155.777 34.44 155.115 35.208C154.475 35.9547 153.579 36.5093 152.427 36.872C151.275 37.2347 149.953 37.416 148.459 37.416ZM157.236 16.552C157.236 15.6347 157.513 14.8987 158.068 14.344C158.644 13.768 159.433 13.48 160.436 13.48C161.503 13.48 162.292 13.7573 162.804 14.312C163.337 14.8667 163.604 15.6027 163.604 16.52C163.604 17.416 163.337 18.1413 162.804 18.696C162.292 19.2293 161.503 19.496 160.436 19.496C159.391 19.496 158.591 19.2293 158.036 18.696C157.503 18.1413 157.236 17.4267 157.236 16.552ZM160.436 37C159.433 37 158.687 36.7227 158.196 36.168C157.705 35.6133 157.46 34.92 157.46 34.088V23.144C157.46 22.2267 157.705 21.5013 158.196 20.968C158.687 20.4347 159.433 20.168 160.436 20.168C161.439 20.168 162.185 20.4347 162.676 20.968C163.188 21.5013 163.444 22.2053 163.444 23.08V34.088C163.444 34.92 163.177 35.6133 162.644 36.168C162.132 36.7227 161.396 37 160.436 37ZM172.959 37.064C170.463 37.064 168.469 36.328 166.975 34.856C165.503 33.3627 164.767 31.2613 164.767 28.552C164.767 26.888 165.109 25.4267 165.791 24.168C166.474 22.9093 167.423 21.928 168.639 21.224C169.877 20.4987 171.317 20.136 172.959 20.136C174.794 20.136 176.319 20.4987 177.535 21.224C178.751 21.928 179.658 22.9093 180.255 24.168C180.874 25.4267 181.183 26.888 181.183 28.552C181.183 31.2613 180.501 33.3627 179.135 34.856C177.791 36.328 175.733 37.064 172.959 37.064ZM168.575 28.008C168.575 28.6693 168.906 29.1387 169.567 29.416C170.229 29.672 171.359 29.8 172.959 29.8C174.559 29.8 175.69 29.672 176.351 29.416C177.013 29.1387 177.343 28.6693 177.343 28.008C177.343 27.368 177.013 26.92 176.351 26.664C175.69 26.408 174.559 26.28 172.959 26.28C171.359 26.28 170.229 26.408 169.567 26.664C168.906 26.92 168.575 27.368 168.575 28.008ZM185.843 37C184.904 37 184.147 36.7227 183.571 36.168C183.016 35.592 182.739 34.888 182.739 34.056V23.464C182.739 22.568 183.006 21.8107 183.539 21.192C184.072 20.5733 184.84 20.264 185.843 20.264C186.824 20.264 187.571 20.5733 188.083 21.192C188.595 21.8107 188.851 22.5893 188.851 23.528V25.128H189.427C189.427 23.912 189.64 22.952 190.067 22.248C190.515 21.544 191.08 21.0427 191.763 20.744C192.446 20.424 193.128 20.264 193.811 20.264C195.454 20.264 196.659 20.8613 197.427 22.056C198.195 23.2293 198.579 24.904 198.579 27.08V34.056C198.579 34.888 198.302 35.592 197.747 36.168C197.192 36.7227 196.446 37 195.507 37C194.547 37 193.779 36.7227 193.203 36.168C192.648 35.592 192.371 34.888 192.371 34.056V28.392C192.371 27.624 192.222 27.0267 191.923 26.6C191.646 26.1733 191.23 25.96 190.675 25.96C190.035 25.96 189.566 26.1947 189.267 26.664C188.99 27.1333 188.851 27.7307 188.851 28.456V34.056C188.851 34.888 188.584 35.592 188.051 36.168C187.518 36.7227 186.782 37 185.843 37Z" fill="black"/>
</svg>
