<svg width="188" height="46" viewBox="0 0 188 46" fill="none" xmlns="http://www.w3.org/2000/svg">
<path id="Gel Manicure" d="M9.152 37.192C7.44533 37.192 5.96267 36.7013 4.704 35.72C3.44533 34.7173 2.47467 33.352 1.792 31.624C1.10933 29.8747 0.768 27.9013 0.768 25.704C0.768 23.656 1.06667 21.864 1.664 20.328C2.28267 18.7707 3.11467 17.48 4.16 16.456C5.22667 15.4107 6.45333 14.632 7.84 14.12C9.248 13.5867 10.7307 13.32 12.288 13.32C15.1467 13.32 17.2587 13.7253 18.624 14.536C20.0107 15.3253 20.704 16.3493 20.704 17.608C20.704 18.5893 20.448 19.4533 19.936 20.2C19.4453 20.9467 18.6987 21.32 17.696 21.32C17.0133 21.32 16.3627 21.256 15.744 21.128C15.1467 21 14.528 20.8827 13.888 20.776C13.2693 20.648 12.576 20.584 11.808 20.584C10.1227 20.584 8.90667 21.064 8.16 22.024C7.43467 22.984 7.072 24.1893 7.072 25.64C7.072 26.8133 7.30667 27.7733 7.776 28.52C8.26667 29.2667 8.90667 29.8213 9.696 30.184C10.5067 30.5253 11.4027 30.696 12.384 30.696C13.1947 30.696 13.952 30.5147 14.656 30.152C15.36 29.7893 15.808 29.1173 16 28.136H14.432C13.6853 28.136 13.1093 27.912 12.704 27.464C12.2987 26.9947 12.096 26.3973 12.096 25.672C12.096 24.9467 12.2987 24.36 12.704 23.912C13.1093 23.464 13.6853 23.24 14.432 23.24H18.272C19.6587 23.24 20.6293 23.6133 21.184 24.36C21.76 25.0853 22.048 26.1733 22.048 27.624V33.608C22.048 34.7173 21.7493 35.56 21.152 36.136C20.5547 36.712 19.7653 37 18.784 37C17.7387 37 16.9173 36.712 16.32 36.136C15.7227 35.56 15.424 34.7173 15.424 33.608V31.624H14.848C14.848 33.5653 14.3573 34.984 13.376 35.88C12.3947 36.7547 11.0827 37.192 9.44 37.192H9.152ZM23.361 28.68C23.361 26.9947 23.6917 25.512 24.353 24.232C25.0357 22.952 25.9957 21.9493 27.233 21.224C28.4917 20.4987 29.985 20.136 31.713 20.136C33.057 20.136 34.2623 20.3813 35.329 20.872C36.417 21.3627 37.2703 22.024 37.889 22.856C38.5077 23.6667 38.817 24.5627 38.817 25.544C38.817 26.568 38.5183 27.2933 37.921 27.72C37.3237 28.1467 36.4383 28.36 35.265 28.36H28.545C28.545 28.9147 28.7583 29.3733 29.185 29.736C29.633 30.0987 30.3797 30.28 31.425 30.28C31.9583 30.28 32.449 30.2267 32.897 30.12C33.3663 30.0133 33.8357 29.9173 34.305 29.832C34.7957 29.7253 35.3397 29.672 35.937 29.672C36.7903 29.672 37.4943 29.9813 38.049 30.6C38.6037 31.1973 38.881 32.0293 38.881 33.096C38.881 34.3547 38.2303 35.336 36.929 36.04C35.649 36.744 33.9637 37.096 31.873 37.096C30.401 37.096 29.0143 36.808 27.713 36.232C26.433 35.656 25.3877 34.7493 24.577 33.512C23.7663 32.2533 23.361 30.6427 23.361 28.68ZM33.729 27.304C34.049 27.304 34.1557 27.1547 34.049 26.856C33.9637 26.5573 33.7077 26.248 33.281 25.928C32.8543 25.608 32.2357 25.448 31.425 25.448C30.4863 25.448 29.7823 25.6507 29.313 26.056C28.865 26.4613 28.641 26.8773 28.641 27.304H33.729ZM43.3408 37C42.2954 37 41.5061 36.7227 40.9728 36.168C40.4608 35.6133 40.2048 34.92 40.2048 34.088V15.528C40.2048 14.6107 40.4608 13.8533 40.9728 13.256C41.5061 12.6373 42.2954 12.328 43.3408 12.328C44.2794 12.328 45.0048 12.6373 45.5168 13.256C46.0288 13.8533 46.2848 14.5893 46.2848 15.464V34.088C46.2848 34.92 46.0288 35.6133 45.5168 36.168C45.0048 36.7227 44.2794 37 43.3408 37ZM57.0693 37C55.9599 37 55.1386 36.6693 54.6053 36.008C54.0719 35.3467 53.8053 34.4613 53.8053 33.352V18.44C53.8053 16.8187 54.2426 15.624 55.1173 14.856C56.0133 14.088 57.0799 13.704 58.3173 13.704C59.4906 13.704 60.4826 14.088 61.2933 14.856C62.1253 15.624 62.7333 16.84 63.1173 18.504L65.6133 29.352H66.4453L68.9412 18.504C69.3252 16.84 69.9333 15.624 70.7653 14.856C71.6186 14.088 72.6319 13.704 73.8053 13.704C75.0426 13.704 76.0986 14.088 76.9733 14.856C77.8693 15.624 78.3173 16.8187 78.3173 18.44V33.352C78.3173 34.4613 78.0399 35.3467 77.4853 36.008C76.9519 36.6693 76.1306 37 75.0213 37C73.9546 37 73.1333 36.6693 72.5573 36.008C71.9813 35.3467 71.6933 34.4613 71.6933 33.352V24.744C71.6933 24.5307 71.6613 24.3387 71.5972 24.168C71.5546 23.976 71.4159 23.88 71.1813 23.88C70.9893 23.88 70.8506 23.976 70.7653 24.168C70.6799 24.3387 70.6159 24.5307 70.5733 24.744L69.3573 32.808C69.2079 33.6827 69.0266 34.44 68.8133 35.08C68.6213 35.6987 68.3119 36.1787 67.8853 36.52C67.4586 36.84 66.8399 37 66.0293 37C65.2399 37 64.6213 36.84 64.1733 36.52C63.7466 36.1787 63.4266 35.6987 63.2133 35.08C63.0213 34.44 62.8613 33.6827 62.7333 32.808L61.4853 24.744C61.4639 24.5307 61.4106 24.3387 61.3253 24.168C61.2399 23.976 61.0906 23.88 60.8773 23.88C60.6639 23.88 60.5253 23.976 60.4613 24.168C60.3973 24.3387 60.3653 24.5307 60.3653 24.744V33.352C60.3653 34.4613 60.0773 35.3467 59.5013 36.008C58.9466 36.6693 58.1359 37 57.0693 37ZM84.9438 37C83.3651 37 82.1278 36.5733 81.2318 35.72C80.3571 34.8667 79.9198 33.672 79.9198 32.136C79.9198 30.6 80.4318 29.4907 81.4557 28.808C82.4798 28.104 83.7918 27.752 85.3918 27.752C86.3304 27.752 87.1838 27.816 87.9518 27.944C88.7198 28.072 89.4131 28.2533 90.0318 28.488H90.1278V28.008C90.1278 27.5173 89.9464 27.1333 89.5838 26.856C89.2211 26.5573 88.7624 26.4187 88.2078 26.44C87.6744 26.44 87.2158 26.472 86.8318 26.536C86.4691 26.6 86.0104 26.7067 85.4558 26.856C84.4318 27.112 83.5464 27.0907 82.7998 26.792C82.0531 26.4933 81.5411 25.9067 81.2638 25.032C81.0078 24.1147 81.0611 23.3467 81.4238 22.728C81.8078 22.1093 82.3838 21.6293 83.1518 21.288C83.8131 20.968 84.5491 20.7013 85.3598 20.488C86.1918 20.2747 87.0878 20.168 88.0478 20.168C90.8424 20.168 92.8904 20.8507 94.1918 22.216C95.5144 23.56 96.1758 25.8213 96.1758 29V33.96C96.1758 34.8347 95.9091 35.56 95.3758 36.136C94.8424 36.712 94.1064 37 93.1678 37C92.1438 37 91.3758 36.712 90.8638 36.136C90.3731 35.56 90.1278 34.856 90.1278 34.024V33.288H89.4878C89.4878 33.8427 89.3811 34.408 89.1678 34.984C88.9758 35.56 88.5598 36.04 87.9198 36.424C87.3011 36.808 86.3091 37 84.9438 37ZM85.2638 29.992C85.2638 30.3547 85.3918 30.6107 85.6478 30.76C85.9251 30.9093 86.5118 30.984 87.4078 30.984C88.2184 30.984 88.7838 30.9093 89.1038 30.76C89.4238 30.6107 89.5838 30.3547 89.5838 29.992C89.5838 29.6507 89.4238 29.416 89.1038 29.288C88.7838 29.1387 88.2184 29.064 87.4078 29.064C86.5118 29.064 85.9251 29.1387 85.6478 29.288C85.3918 29.416 85.2638 29.6507 85.2638 29.992ZM100.937 37C99.9981 37 99.2408 36.7227 98.6648 36.168C98.1101 35.592 97.8328 34.888 97.8328 34.056V23.464C97.8328 22.568 98.0994 21.8107 98.6328 21.192C99.1661 20.5733 99.9341 20.264 100.937 20.264C101.918 20.264 102.665 20.5733 103.177 21.192C103.689 21.8107 103.945 22.5893 103.945 23.528V25.128H104.521C104.521 23.912 104.734 22.952 105.161 22.248C105.609 21.544 106.174 21.0427 106.857 20.744C107.539 20.424 108.222 20.264 108.905 20.264C110.547 20.264 111.753 20.8613 112.521 22.056C113.289 23.2293 113.673 24.904 113.673 27.08V34.056C113.673 34.888 113.395 35.592 112.841 36.168C112.286 36.7227 111.539 37 110.601 37C109.641 37 108.873 36.7227 108.297 36.168C107.742 35.592 107.465 34.888 107.465 34.056V28.392C107.465 27.624 107.315 27.0267 107.017 26.6C106.739 26.1733 106.323 25.96 105.769 25.96C105.129 25.96 104.659 26.1947 104.361 26.664C104.083 27.1333 103.945 27.7307 103.945 28.456V34.056C103.945 34.888 103.678 35.592 103.145 36.168C102.611 36.7227 101.875 37 100.937 37ZM115.205 16.552C115.205 15.6347 115.482 14.8987 116.037 14.344C116.613 13.768 117.402 13.48 118.405 13.48C119.471 13.48 120.261 13.7573 120.773 14.312C121.306 14.8667 121.573 15.6027 121.573 16.52C121.573 17.416 121.306 18.1413 120.773 18.696C120.261 19.2293 119.471 19.496 118.405 19.496C117.359 19.496 116.559 19.2293 116.005 18.696C115.471 18.1413 115.205 17.4267 115.205 16.552ZM118.405 37C117.402 37 116.655 36.7227 116.165 36.168C115.674 35.6133 115.429 34.92 115.429 34.088V23.144C115.429 22.2267 115.674 21.5013 116.165 20.968C116.655 20.4347 117.402 20.168 118.405 20.168C119.407 20.168 120.154 20.4347 120.645 20.968C121.157 21.5013 121.413 22.2053 121.413 23.08V34.088C121.413 34.92 121.146 35.6133 120.613 36.168C120.101 36.7227 119.365 37 118.405 37ZM131.088 37.096C129.424 37.096 127.952 36.7547 126.672 36.072C125.392 35.368 124.389 34.376 123.664 33.096C122.939 31.816 122.576 30.312 122.576 28.584C122.576 26.856 122.939 25.352 123.664 24.072C124.389 22.792 125.392 21.8 126.672 21.096C127.973 20.392 129.467 20.04 131.152 20.04C132.475 20.04 133.637 20.1787 134.64 20.456C135.664 20.7333 136.464 21.1493 137.04 21.704C137.637 22.2587 137.936 22.952 137.936 23.784C137.936 24.7867 137.68 25.576 137.168 26.152C136.656 26.7067 135.92 26.984 134.96 26.984C134.32 26.984 133.68 26.888 133.04 26.696C132.421 26.504 131.621 26.408 130.64 26.408C129.829 26.408 129.147 26.536 128.592 26.792C128.037 27.048 127.76 27.5173 127.76 28.2C127.76 28.904 128.037 29.416 128.592 29.736C129.147 30.0347 129.829 30.184 130.64 30.184C131.301 30.184 131.856 30.12 132.304 29.992C132.752 29.864 133.179 29.736 133.584 29.608C133.989 29.48 134.448 29.416 134.96 29.416C136.048 29.416 136.848 29.736 137.36 30.376C137.893 30.9947 138.16 31.7947 138.16 32.776C138.16 33.608 137.851 34.3547 137.232 35.016C136.613 35.656 135.771 36.168 134.704 36.552C133.637 36.9147 132.432 37.096 131.088 37.096ZM144.547 37C143.053 37 141.837 36.4347 140.899 35.304C139.96 34.1733 139.48 32.584 139.459 30.536L139.427 23.144C139.427 22.2267 139.704 21.512 140.259 21C140.835 20.4667 141.613 20.2 142.595 20.2C143.533 20.2 144.291 20.4667 144.867 21C145.443 21.512 145.731 22.2267 145.731 23.144V29.832C145.731 31.432 146.36 32.232 147.619 32.232C148.237 32.232 148.653 32.008 148.867 31.56C149.08 31.0907 149.187 30.4933 149.187 29.768V23.144C149.187 22.312 149.475 21.6187 150.051 21.064C150.627 20.488 151.373 20.2 152.291 20.2C153.251 20.2 153.987 20.488 154.499 21.064C155.032 21.6187 155.299 22.312 155.299 23.144V33.64C155.299 34.664 155.064 35.4853 154.595 36.104C154.147 36.7013 153.411 37 152.387 37C151.384 37 150.595 36.7013 150.019 36.104C149.464 35.4853 149.187 34.664 149.187 33.64V33.096H148.611C148.611 34.3333 148.237 35.2933 147.491 35.976C146.765 36.6587 145.784 37 144.547 37ZM160.126 37C159.123 37 158.344 36.712 157.79 36.136C157.235 35.56 156.958 34.8347 156.958 33.96V23.464C156.958 22.5467 157.235 21.7893 157.79 21.192C158.344 20.5733 159.123 20.264 160.126 20.264C161.128 20.264 161.896 20.5733 162.43 21.192C162.963 21.7893 163.23 22.5253 163.23 23.4V24.072H163.838C163.923 22.9413 164.35 22.0133 165.118 21.288C165.886 20.5627 166.792 20.2 167.838 20.2C168.883 20.2 169.704 20.52 170.302 21.16C170.92 21.8 171.23 22.6533 171.23 23.72C171.23 24.7227 170.942 25.5547 170.366 26.216C169.79 26.8773 169.054 27.208 168.158 27.208C167.411 27.208 166.782 27.0373 166.27 26.696C165.779 26.3333 165.416 25.9173 165.182 25.448C164.499 25.3627 163.998 25.4373 163.678 25.672C163.379 25.8853 163.23 26.3227 163.23 26.984V33.96C163.23 34.8347 162.963 35.56 162.43 36.136C161.896 36.712 161.128 37 160.126 37ZM171.455 28.68C171.455 26.9947 171.785 25.512 172.447 24.232C173.129 22.952 174.089 21.9493 175.327 21.224C176.585 20.4987 178.079 20.136 179.807 20.136C181.151 20.136 182.356 20.3813 183.423 20.872C184.511 21.3627 185.364 22.024 185.983 22.856C186.601 23.6667 186.911 24.5627 186.911 25.544C186.911 26.568 186.612 27.2933 186.015 27.72C185.417 28.1467 184.532 28.36 183.359 28.36H176.639C176.639 28.9147 176.852 29.3733 177.279 29.736C177.727 30.0987 178.473 30.28 179.519 30.28C180.052 30.28 180.543 30.2267 180.991 30.12C181.46 30.0133 181.929 29.9173 182.399 29.832C182.889 29.7253 183.433 29.672 184.031 29.672C184.884 29.672 185.588 29.9813 186.143 30.6C186.697 31.1973 186.975 32.0293 186.975 33.096C186.975 34.3547 186.324 35.336 185.023 36.04C183.743 36.744 182.057 37.096 179.967 37.096C178.495 37.096 177.108 36.808 175.807 36.232C174.527 35.656 173.481 34.7493 172.671 33.512C171.86 32.2533 171.455 30.6427 171.455 28.68ZM181.823 27.304C182.143 27.304 182.249 27.1547 182.143 26.856C182.057 26.5573 181.801 26.248 181.375 25.928C180.948 25.608 180.329 25.448 179.519 25.448C178.58 25.448 177.876 25.6507 177.407 26.056C176.959 26.4613 176.735 26.8773 176.735 27.304H181.823Z" fill="black"/>
</svg>
