<svg width="400" height="400" viewBox="0 0 400 400" fill="none" xmlns="http://www.w3.org/2000/svg">
<rect width="400" height="400" fill=""/>
<path id="Ellipse 1" d="M400 200C400 310.457 310.457 400 200 400C89.5431 400 0 310.457 0 200C0 89.5431 89.5431 0 200 0C310.457 0 400 89.5431 400 200Z" fill="black"/>
<path id="nails" d="M122.648 156.472C119.192 156.728 115.416 155.384 112.856 153.144C109.848 150.52 108.12 146.744 106.008 143.352C105.432 146.744 103.896 150.136 101.592 152.696C100.312 154.168 98.584 155.512 96.728 156.088C95.256 156.536 93.656 156.472 92.184 156.088C89.816 155.512 87.64 153.976 85.912 152.312C83.032 149.56 80.792 145.912 79.768 142.072C79 139.064 78.744 135.928 78.552 132.856C78.232 126.648 78.424 120.376 79.384 114.232C79.896 110.648 80.6 107 82.328 103.8C83.096 102.52 84.12 101.368 85.208 100.28C86.488 98.936 87.896 97.656 89.496 96.568C91.16 95.48 93.336 95.096 95.32 95.096C99.608 95.096 104.024 96.76 107.608 99.128C108.888 100.024 110.552 99.448 111.384 98.104C113.048 95.736 115.864 93.816 118.744 93.304C122.264 92.792 126.104 93.944 129.048 95.928C131.8 97.784 134.04 100.472 135.384 103.48C136.856 106.744 137.752 110.328 138.2 113.848C138.904 119.544 138.584 125.304 138.136 131C137.688 136.824 137.24 142.84 134.872 148.216C133.912 150.584 132.44 152.888 130.328 154.424C129.112 155.384 124.12 156.344 122.648 156.472ZM114.712 148.472C117.4 150.072 122.2 149.368 124.44 147.192C125.4 146.232 126.104 144.952 126.616 143.672C128.088 140.216 128.792 136.44 129.432 132.792C130.264 127.608 130.776 122.36 130.776 117.112C130.84 112.376 130.328 107.448 128.664 103.032C126.744 98.168 121.432 94.968 116.952 97.72C115.096 98.872 113.752 100.856 112.92 102.84C111.512 106.104 111.128 109.816 111.192 113.336C111.192 119.224 112.152 125.112 114.008 130.616C114.264 131.384 113.048 130.104 112.728 129.4C111.064 125.816 110.232 121.848 109.784 117.88C109.464 115.448 104.92 106.296 103.768 104.056C101.784 100.344 96.664 96.952 92.632 98.04C91.224 98.424 89.944 99.256 88.856 100.216C86.872 101.88 85.464 104.184 84.376 106.552C81.944 112.184 81.304 118.648 81.432 124.792C81.56 129.848 82.008 134.968 83.48 139.832C84.184 142.072 85.08 144.312 86.616 146.168C87.704 147.448 89.368 148.6 91.096 148.664C92.76 148.728 94.488 148.088 95.768 147.064C97.176 145.912 98.136 144.248 98.776 142.584C100.376 138.36 100.696 133.432 99.736 129.016C99.48 127.608 99.096 126.2 98.584 124.92C98.392 124.536 97.688 122.936 97.688 122.552C97.688 122.36 97.88 122.104 98.072 121.976C100.76 125.304 101.848 129.72 103.832 133.496C105.56 136.76 107.608 139.896 109.72 142.904C110.808 144.44 111.96 145.912 113.24 147.256C113.688 147.704 114.2 148.152 114.712 148.472ZM155.834 151.224C149.114 158.456 137.146 155.192 135.29 145.528C134.586 141.688 135.482 137.72 135.994 133.816C137.466 122.296 142.97 110.84 150.65 102.072C152.506 100.024 154.298 97.848 156.538 96.376C158.266 95.224 160.314 94.648 162.298 94.392C165.562 94.072 169.146 94.648 172.09 96.12C174.522 97.336 176.57 99.192 178.362 101.24C181.178 104.376 183.418 108.088 185.338 111.928C187.898 117.048 189.882 122.488 191.29 128.056C192.378 132.472 193.082 137.016 192.89 141.56C192.826 143.608 192.698 145.72 192.058 147.64C191.674 148.856 190.97 150.072 190.074 150.968C188.474 152.44 186.17 153.208 184.058 153.592C180.602 154.168 177.018 154.04 173.69 153.208C171.706 152.76 169.786 151.544 168.314 150.136C165.37 147.32 163.322 143.736 160.954 140.408C159.994 144.248 158.522 148.28 155.834 151.224ZM142.266 148.472C143.034 148.856 143.994 149.048 144.89 148.92C146.362 148.792 147.834 147.96 148.986 147C150.778 145.592 152.25 143.8 153.338 141.816C154.81 139.32 155.706 136.44 156.538 133.688C156.666 133.304 157.178 131.64 157.178 131.192C157.178 131 156.858 130.808 156.666 130.68C156.09 130.488 155.514 130.424 154.874 130.36C156.218 130.168 163.898 129.016 165.178 128.76C165.37 128.76 165.626 129.08 165.754 129.144C164.73 129.784 163.642 130.296 162.554 130.68C163.194 134.2 163.706 137.848 164.986 141.176C165.818 143.416 167.162 145.656 169.146 147.064C170.554 148.088 172.282 148.92 174.01 148.792C175.738 148.6 177.466 147.576 178.682 146.296C179.962 144.888 180.922 143.032 181.306 141.112C181.754 139.064 181.754 136.824 181.69 134.712C181.498 131.384 180.986 128.056 180.09 124.856C179.194 121.592 173.818 107.768 172.026 104.952C170.49 102.52 168.314 100.344 165.754 99C164.282 98.232 162.49 97.72 160.89 98.104C158.458 98.68 156.41 100.408 154.682 102.2C148.474 108.856 143.738 117.24 141.178 126.008C139.962 130.104 139.13 134.328 138.874 138.616C138.81 140.472 138.746 142.456 139.13 144.312C139.322 145.208 139.642 146.168 140.282 146.936C140.858 147.512 141.498 148.088 142.266 148.472ZM165.69 110.584C168.442 115.448 164.922 121.528 159.354 121.528C154.362 121.528 152.314 115.576 154.746 111.096C156.346 108.216 159.738 106.04 162.682 107.512C163.962 108.152 165.05 109.304 165.69 110.584ZM157.946 116.664C158.202 117.624 158.97 118.2 159.866 118.2C161.722 118.2 163.578 116.536 163.77 114.68C163.898 113.976 163.642 113.08 163.066 112.568C162.554 112.184 161.85 112.056 161.21 112.12C159.034 112.184 157.306 114.552 157.946 116.664ZM209.478 154.808C208.006 155.384 203.078 154.744 201.542 154.296C199.686 153.72 196.998 149.624 196.23 147.768C195.334 145.656 194.246 143.608 193.478 141.368C192.39 137.976 191.814 134.456 191.43 130.872C190.854 124.472 191.046 117.88 192.262 111.544C192.966 107.832 194.054 104.056 195.91 100.728C197.126 98.552 198.662 96.44 200.774 95.096C202.31 94.136 204.166 93.56 205.958 93.432C210.182 93.048 214.598 94.712 217.414 97.784C219.59 100.088 220.806 103.16 221.638 106.168C222.854 110.52 223.366 115.064 223.494 119.544C223.622 124.472 223.302 129.4 222.47 134.264C221.766 138.296 220.742 142.392 218.95 146.04C217.926 148.088 216.71 150.136 215.046 151.672C213.446 153.08 211.462 154.104 209.478 154.808ZM201.542 146.296C202.118 146.616 202.886 146.68 203.59 146.552C205.382 146.168 207.174 145.208 208.39 143.864C209.926 142.136 210.886 139.768 211.334 137.464C212.294 132.6 213.062 127.736 213.254 122.808C213.446 117.624 212.998 112.44 212.294 107.32C212.038 105.528 210.374 100.28 209.094 99C208.326 98.168 207.174 97.592 206.022 97.528C204.934 97.528 203.846 98.104 203.014 98.808C201.478 100.024 200.39 101.688 199.43 103.416C198.15 105.72 197.126 108.152 196.294 110.712C193.99 117.496 193.862 125.176 195.206 132.216C195.846 135.8 198.278 144.568 201.542 146.296ZM249.691 156.536C245.403 156.6 240.987 156.472 236.763 155.448C234.907 155 232.987 154.488 231.515 153.272C230.555 152.504 229.723 151.672 228.891 150.84C227.547 149.432 226.843 147.512 226.139 145.72C225.051 142.712 224.219 139.576 223.515 136.44C223.003 133.752 222.491 131.064 222.363 128.312C222.107 121.592 222.363 114.808 223.707 108.28C224.283 105.464 224.987 102.584 226.715 100.28C228.187 98.36 230.043 96.504 232.219 95.416C237.915 92.6 245.211 93.944 249.563 98.616C250.715 99.832 251.611 101.304 251.995 102.904C253.019 106.616 253.467 110.52 253.339 114.36C253.275 117.432 252.763 120.504 252.059 123.512C251.547 125.496 250.971 127.416 250.459 129.4C254.875 128.632 259.675 128.568 263.771 130.296C265.883 131.192 267.611 132.92 269.147 134.648C270.747 136.632 271.387 139.448 271.387 142.008C271.323 144.632 270.299 147.384 268.699 149.432C266.715 151.928 263.771 153.656 260.827 154.68C257.307 155.96 253.467 156.472 249.691 156.536ZM240.539 148.536C243.931 148.728 247.387 148.728 250.779 148.344C253.339 148.024 255.963 147.512 258.331 146.488C259.995 145.784 261.595 144.76 262.683 143.352C263.515 142.264 264.027 140.92 264.155 139.64C264.411 136.696 263.067 132.472 260.315 131.512C257.627 130.552 254.555 130.552 251.803 131.192C247.643 132.216 243.675 134.008 240.091 136.312C240.027 136.376 239.771 135.864 239.835 135.8C240.859 134.456 242.459 133.432 243.163 131.896C243.483 131.256 244.251 127.864 244.379 127.16C245.403 120.952 245.467 114.552 245.147 108.28C245.019 105.656 244.251 102.904 242.843 100.6C242.011 99.256 240.923 97.976 239.451 97.272C238.427 96.76 237.147 96.568 235.995 96.824C234.203 97.208 232.603 98.488 231.387 99.832C229.659 101.624 228.315 103.736 227.483 106.04C226.459 108.856 225.883 111.928 225.691 115C225.307 119.544 225.691 124.152 225.947 128.76C226.267 133.432 226.715 138.36 228.955 142.52C229.723 143.8 230.811 144.952 232.091 145.848C234.523 147.512 237.595 148.344 240.539 148.536ZM306.805 153.72C302.069 155.64 296.629 156.152 291.509 155.448C287.093 154.872 282.677 153.4 278.773 151.16C274.677 148.792 271.413 144.888 269.748 140.408C268.724 137.528 268.276 134.2 269.044 131.256C269.556 129.4 270.645 127.608 272.117 126.328C273.525 125.112 275.381 124.344 277.237 123.96C276.213 121.528 274.613 119.416 273.461 117.048C272.501 115.128 272.053 112.952 272.053 110.776C272.117 107.576 273.269 104.312 275.061 101.688C276.533 99.64 278.581 97.848 280.821 96.632C285.237 94.264 290.357 92.792 295.413 92.92C298.165 92.984 300.917 93.624 303.541 94.584C307.189 95.864 310.773 97.848 313.397 100.728C314.933 102.328 316.213 104.312 316.981 106.424C317.941 108.792 318.389 111.352 318.389 113.912C318.389 115.832 317.877 117.816 317.109 119.608C316.533 121.016 315.637 122.488 314.293 123.384C316.405 125.496 317.941 128.12 319.029 130.872C319.861 133.048 320.501 135.48 320.245 137.848C319.861 141.176 318.453 144.568 316.277 147.064C313.717 149.944 310.389 152.312 306.805 153.72ZM284.469 146.744C289.077 148.216 294.069 148.28 298.741 146.936C301.557 146.168 304.373 144.76 306.613 142.84C307.829 141.816 308.981 140.6 309.749 139.192C310.965 136.952 311.669 134.008 310.773 131.64C309.941 129.4 308.533 127.352 306.805 125.752C304.373 123.448 301.237 122.168 298.421 120.376C296.821 119.288 295.221 118.008 294.133 116.344C292.981 114.488 292.405 112.184 292.277 109.944C292.277 109.88 292.981 110.008 292.981 110.136C294.069 112.248 295.029 114.616 296.757 116.216C297.909 117.304 299.573 117.944 301.109 117.944C302.453 117.944 303.797 117.432 304.949 116.664C306.805 115.448 308.213 113.464 308.789 111.224C310.261 105.656 305.525 99.128 300.213 96.824C296.949 95.416 293.045 95.416 289.589 96.12C286.005 96.888 282.485 98.616 279.733 101.048C278.325 102.328 277.109 103.928 276.341 105.656C274.997 108.856 275.317 112.952 276.789 116.152C278.453 119.8 281.461 122.808 285.109 124.408C286.453 124.984 287.925 125.432 289.141 126.328C292.725 128.888 295.669 132.92 296.693 137.208C296.757 137.272 296.053 137.464 295.989 137.4C294.069 135.032 292.725 132.216 290.613 129.976C289.909 129.208 289.077 128.504 288.117 127.992C285.557 126.584 282.229 126.136 279.285 126.776C277.365 127.224 275.381 128.184 274.036 129.656C273.013 130.808 272.373 132.408 272.245 134.008C271.989 137.08 274.805 142.264 277.493 143.8C279.669 145.08 282.101 145.976 284.469 146.744Z" fill="white"/>
<path id="by" d="M182.328 228.888C176.696 231 170.296 231.064 164.344 230.296C162.68 230.104 161.08 229.528 159.544 228.888C157.688 228.12 155.896 227.224 154.296 226.008C153.144 225.176 152.056 224.152 151.352 222.872C149.496 219.224 148.472 215.128 147.704 211.032C146.744 205.72 146.232 200.216 146.36 194.712C146.488 191.128 146.808 187.48 147.704 183.96C148.28 181.784 149.24 179.608 150.584 177.752C152.248 175.448 154.616 173.528 157.176 172.248C161.464 170.072 166.456 169.368 171.256 169.56C176.44 169.752 181.752 170.968 186.424 173.208C187.896 173.912 189.304 174.808 190.52 175.832C191.48 176.664 192.44 177.688 193.08 178.84C195.384 183.32 195.832 189.144 194.232 193.944C193.656 195.8 192.632 197.656 191.288 199.064C192.44 201.176 193.656 203.352 194.552 205.592C195.192 207.256 195.704 209.048 195.704 210.776C195.704 214.424 194.68 218.2 192.696 221.272C190.392 224.856 186.36 227.416 182.328 228.888ZM162.616 223.512C164.792 223.768 167.032 223.64 169.208 223.384C172.216 223.128 175.288 222.36 177.976 220.824C179.96 219.672 181.816 218.072 183.16 216.152C184.184 214.808 184.76 213.208 185.144 211.608C185.72 209.624 185.976 207.512 185.848 205.464C185.784 203.8 185.336 202.072 184.376 200.728C182.712 198.36 179.832 196.76 177.016 196.248C176.888 196.184 176.696 195.928 176.696 195.8C176.568 195.544 177.016 195.544 177.272 195.544C178.872 195.544 180.536 195.48 181.944 194.776C183.288 194.072 184.312 192.728 184.952 191.32C185.848 189.528 185.976 187.416 185.976 185.432C185.976 183.896 185.784 182.296 185.144 180.824C184.44 179.096 183.096 177.496 181.56 176.408C179.064 174.616 175.928 173.848 172.856 173.592C169.464 173.4 166.008 173.656 162.616 174.296C160.44 174.808 158.072 175.448 156.344 176.92C154.68 178.328 153.784 180.568 153.08 182.616C151.992 185.944 151.416 189.528 151.16 193.048C150.712 198.104 150.648 203.288 151.48 208.28C151.928 211.48 152.888 214.616 154.424 217.432C155.32 219.096 156.536 220.696 158.008 221.912C159.224 222.936 160.952 223.384 162.616 223.512ZM167.224 191.256C165.688 191.768 163.96 191.64 162.424 191.128C161.848 190.936 161.272 190.68 160.888 190.168C160.568 189.72 160.312 189.08 160.12 188.504C159.672 187.16 159.416 185.624 159.8 184.216C160.12 183.128 160.632 182.168 161.208 181.272C161.72 180.568 162.296 179.8 163 179.416C163.832 178.968 164.856 178.776 165.816 178.904C167.992 179.032 170.296 180.44 171.256 182.36C173.048 185.816 170.936 190.04 167.224 191.256ZM163.896 187.928C164.344 188.504 165.368 188.44 166.008 188.248C167.288 187.864 168.696 187.096 169.016 185.816C169.336 184.728 168.952 183.32 167.864 183C166.52 182.552 164.664 183.768 163.96 185.048C163.448 185.88 163.256 187.224 163.896 187.928ZM165.56 210.008C161.848 210.52 159.032 207 159.928 203.416C160.568 200.6 162.872 198.296 165.688 197.592C167.16 197.208 169.016 197.4 170.168 198.36C171.192 199.192 171.704 200.664 171.832 202.008C172.28 205.912 169.464 209.56 165.56 210.008ZM164.024 205.72C164.536 206.744 166.008 206.808 167.096 206.36C167.8 206.104 168.504 205.656 168.952 205.016C169.784 203.864 169.784 202.136 168.568 201.432C167.416 200.792 165.624 201.432 164.792 202.456C164.152 203.224 163.576 204.824 164.024 205.72ZM229.432 231.448C227.256 232.472 224.632 233.176 222.264 232.728C220.92 232.472 219.576 231.768 218.424 230.936C216.44 229.528 214.776 227.736 213.368 225.752C212.216 224.152 211.192 222.296 210.744 220.376C209.4 215.064 209.784 209.496 210.104 203.992C205.688 199.448 200.632 195.48 196.984 190.296C195.704 188.504 194.36 186.584 193.784 184.408C193.08 182.104 193.208 179.608 194.04 177.368C194.936 174.936 196.728 172.696 198.84 171.224C201.656 169.176 205.368 168.152 208.824 168.28C210.744 168.344 212.728 168.856 214.52 169.688C217.848 171.096 220.856 173.4 223.352 176.088C223.608 176.408 223.992 176.728 224.376 176.856C224.888 176.984 225.464 176.856 225.976 176.6C226.744 176.216 227.384 175.704 228.024 175.128C230.264 173.016 232.76 171.096 235.512 169.816C237.496 168.92 239.8 168.344 241.976 168.6C244.344 168.92 246.648 170.136 248.376 171.8C251.192 174.616 253.048 178.776 253.048 182.744C253.112 184.472 252.664 186.264 251.832 187.8C248.888 193.304 244.472 197.912 240.248 202.52C239.608 203.16 237.304 205.4 237.112 206.296C236.92 207.32 236.984 212.824 236.92 213.912C236.856 216.984 236.6 220.12 235.704 223.128C235.064 225.24 233.976 227.352 232.568 229.08C231.736 230.104 230.584 230.872 229.432 231.448ZM212.92 215.704C213.432 219.928 215.48 225.176 219.768 224.856C221.88 224.728 223.928 223.128 225.144 221.336C226.488 219.288 227.192 216.792 227.576 214.36C228.088 210.968 227.96 207.448 227.704 203.992C227.512 199.96 235.576 193.688 238.52 190.872C240.12 189.4 241.528 187.736 242.744 185.88C243.832 184.28 244.728 182.552 245.112 180.696C245.944 176.728 243.704 172.568 239.672 172.184C237.816 171.992 235.896 172.76 234.232 173.656C230.008 176.152 226.68 180.12 223.928 184.216C222.264 186.584 220.728 189.144 219.576 191.832C219.576 191.896 219 192.088 218.936 192.024C218.872 191.896 218.552 191.64 218.616 191.512C219.064 189.848 220.088 188.312 220.6 186.584C220.92 185.56 220.92 184.28 220.408 183.32C218.936 180.184 216.376 177.496 213.56 175.512C211.128 173.848 208.248 172.504 205.368 172.568C200.184 172.696 196.216 177.368 197.304 182.424C197.752 184.472 198.968 186.328 200.248 187.992C201.976 190.36 204.088 192.408 206.264 194.392C208.056 195.928 209.912 197.464 211.96 198.616C212.344 198.872 212.664 199.192 212.792 199.64C213.24 200.664 213.176 201.88 213.112 202.968C212.664 207.192 212.344 211.544 212.92 215.704Z" fill="white"/>
<path id="vix" d="M160.648 307.704C157.64 308.28 154.312 307.64 151.56 306.296C149.64 305.4 147.848 304.056 146.376 302.456C139.72 295.352 134.152 287.096 129.928 278.264C128.648 275.576 124.104 263.48 123.72 260.536C123.208 257.208 123.784 253.56 125.384 250.616C126.344 248.888 127.816 247.352 129.608 246.392C131.08 245.624 132.936 245.304 134.664 245.368C138.44 245.432 142.344 245.944 145.736 247.544C147.912 248.568 149.576 250.488 150.984 252.472C152.904 255.16 154.376 258.168 155.912 261.112C158.344 256.376 161.352 251.704 165.448 248.312C166.728 247.288 168.392 246.52 169.992 246.2C173.512 245.496 177.544 246.136 180.552 248.12C182.728 249.592 184.328 252.024 185.096 254.456C186.44 258.616 186.184 263.224 185.224 267.448C183.304 276.344 180.232 285.112 175.624 292.92C173.128 297.08 170.184 301.048 166.728 304.44C165.064 306.04 162.888 307.256 160.648 307.704ZM151.432 298.488C153.224 298.872 155.144 298.68 156.872 298.104C160.008 296.952 162.824 294.52 164.744 291.768C167.496 287.992 169.864 283.96 172.168 279.864C174.92 275 177.096 269.752 178.248 264.248C178.76 262.136 179.08 259.896 178.952 257.72C178.824 256.12 178.504 254.456 177.608 253.112C176.776 251.896 175.56 250.936 174.216 250.424C172.488 249.784 170.504 249.784 168.776 250.424C167.56 250.872 166.408 251.704 165.384 252.6C162.76 255.032 160.904 258.232 159.368 261.432C157.704 264.824 156.424 268.408 155.4 271.992C154.568 274.936 153.928 277.944 153.736 280.952C153.736 281.016 153.096 280.696 153.096 280.632C152.904 279.288 152.52 277.88 152.648 276.536C152.712 275.704 152.328 274.936 152.072 274.232C151.88 273.72 150.664 270.968 150.536 270.456C148.872 264.696 146.952 258.616 142.984 254.072C141.768 252.664 140.296 251.384 138.696 250.424C137.224 249.528 135.368 249.08 133.576 249.272C132.744 249.336 131.912 249.592 131.208 250.04C127.56 252.408 126.792 259.768 127.752 263.928C129.224 270.2 132.104 276.024 135.176 281.656C136.52 284.088 143.944 293.624 145.992 295.544C147.528 296.952 149.448 298.04 151.432 298.488ZM202.478 306.808C201.006 307.384 196.078 306.744 194.542 306.296C192.686 305.72 189.998 301.624 189.23 299.768C188.334 297.656 187.246 295.608 186.478 293.368C185.39 289.976 184.814 286.456 184.43 282.872C183.854 276.472 184.046 269.88 185.262 263.544C185.966 259.832 187.054 256.056 188.91 252.728C190.126 250.552 191.662 248.44 193.774 247.096C195.31 246.136 197.166 245.56 198.958 245.432C203.182 245.048 207.598 246.712 210.414 249.784C212.59 252.088 213.806 255.16 214.638 258.168C215.854 262.52 216.366 267.064 216.494 271.544C216.622 276.472 216.302 281.4 215.47 286.264C214.766 290.296 213.742 294.392 211.95 298.04C210.926 300.088 209.71 302.136 208.046 303.672C206.446 305.08 204.462 306.104 202.478 306.808ZM194.542 298.296C195.118 298.616 195.886 298.68 196.59 298.552C198.382 298.168 200.174 297.208 201.39 295.864C202.926 294.136 203.886 291.768 204.334 289.464C205.294 284.6 206.062 279.736 206.254 274.808C206.446 269.624 205.998 264.44 205.294 259.32C205.038 257.528 203.374 252.28 202.094 251C201.326 250.168 200.174 249.592 199.022 249.528C197.934 249.528 196.846 250.104 196.014 250.808C194.478 252.024 193.39 253.688 192.43 255.416C191.15 257.72 190.126 260.152 189.294 262.712C186.99 269.496 186.862 277.176 188.206 284.216C188.846 287.8 191.278 296.568 194.542 298.296ZM268.163 307.448C263.683 308.792 258.179 307.896 254.339 305.272C250.819 302.968 247.235 300.472 244.611 297.144C242.179 300.024 239.939 303.096 236.867 305.208C231.747 308.664 224.515 308.408 219.651 304.504C217.411 302.712 215.619 299.96 215.043 297.144C214.659 295.096 214.851 292.92 215.363 290.872C216.259 287.416 217.987 284.216 220.099 281.4C222.339 278.456 225.091 275.768 228.291 273.848C226.051 272.568 223.811 271.224 221.827 269.56C219.651 267.704 217.731 265.4 216.515 262.776C215.683 261.176 215.107 259.32 215.107 257.464C215.107 255.48 215.683 253.432 216.707 251.768C217.667 250.104 219.139 248.632 220.739 247.544C222.147 246.648 223.875 246.264 225.603 246.136C227.779 245.944 230.083 246.136 232.259 246.648C235.587 247.48 238.339 249.976 240.771 252.408C241.795 253.432 242.883 251.768 243.907 250.744C245.187 249.464 250.371 246.072 252.163 245.624C262.915 242.872 272.515 252.856 269.763 263.608C269.187 265.656 267.907 267.576 266.499 269.24C264.387 271.672 261.955 273.784 259.907 276.28C265.411 277.88 270.659 281.656 273.603 286.584C275.203 289.336 276.227 292.6 276.163 295.8C276.099 298.424 275.139 301.048 273.795 303.224C272.579 305.272 270.403 306.808 268.163 307.448ZM222.275 300.344C223.939 300.984 225.859 300.984 227.587 300.536C229.315 300.088 230.915 299.128 232.259 297.912C234.947 295.48 236.867 292.344 239.555 289.912C238.979 289.016 238.531 288.056 238.211 287.096C238.147 286.84 237.955 286.136 238.083 285.88C238.275 285.432 238.851 286.008 239.171 286.328C240.259 287.416 240.835 288.888 241.859 290.04C246.147 294.648 251.907 298.68 258.115 299.896C259.843 300.216 261.571 300.472 263.299 300.344C269.955 299.768 270.147 291 266.371 285.368C265.283 283.768 263.555 282.552 261.955 281.4C259.459 279.8 256.835 278.392 254.147 277.304C252.995 276.92 251.779 276.472 250.563 276.344C249.731 276.216 248.643 275.64 249.219 274.936C253.059 270.328 257.731 266.36 260.867 261.304C262.083 259.32 263.107 257.08 262.979 254.776C262.787 251.64 260.035 248.696 256.835 248.44C254.659 248.184 252.419 249.08 250.563 250.168C247.299 252.152 244.547 255.224 242.691 258.552C240.771 261.88 239.747 265.72 238.787 269.496C238.659 269.304 237.827 268.856 237.827 268.664C237.699 267.64 238.851 263.288 238.979 262.264C239.107 261.304 238.915 260.28 238.595 259.32C237.251 255.224 233.539 251.512 229.443 250.36C226.947 249.72 223.939 250.296 221.763 251.704C220.291 252.664 219.011 254.328 218.627 256.056C218.307 257.72 218.819 259.512 219.587 260.984C220.611 262.968 222.019 264.76 223.619 266.36C226.435 269.368 229.763 271.928 233.219 274.296C230.147 276.344 227.139 278.648 224.579 281.336C220.547 285.496 215.683 293.048 219.011 297.848C219.779 299 220.995 299.896 222.275 300.344Z" fill="white"/>
</svg>
