<svg width="600" height="600" viewBox="0 0 600 600" fill="none" xmlns="http://www.w3.org/2000/svg">
<rect width="600" height="600" fill=""/>
<circle cx="300" cy="300" r="300" fill="#1E1E1E"/>
<path d="M184.785 232.208C179.601 232.592 173.937 230.576 170.097 227.216C165.585 223.28 162.993 217.616 159.825 212.528C158.961 217.616 156.657 222.704 153.201 226.544C151.281 228.752 148.689 230.768 145.905 231.632C143.697 232.304 141.297 232.208 139.089 231.632C135.537 230.768 132.273 228.464 129.681 225.968C125.361 221.84 122.001 216.368 120.465 210.608C119.312 206.096 118.928 201.392 118.64 196.784C118.16 187.472 118.448 178.064 119.889 168.848C120.657 163.472 121.713 158 124.305 153.2C125.457 151.28 126.993 149.552 128.625 147.92C130.545 145.904 132.657 143.984 135.057 142.352C137.553 140.72 140.817 140.144 143.793 140.144C150.225 140.144 156.849 142.64 162.225 146.192C164.145 147.536 166.641 146.672 167.889 144.656C170.385 141.104 174.609 138.224 178.929 137.456C184.209 136.688 189.969 138.416 194.385 141.392C198.513 144.176 201.873 148.208 203.889 152.72C206.097 157.616 207.441 162.992 208.113 168.272C209.169 176.816 208.689 185.456 208.017 194C207.345 202.736 206.673 211.76 203.121 219.824C201.681 223.376 199.473 226.832 196.305 229.136C194.481 230.576 186.993 232.016 184.785 232.208ZM172.881 220.208C176.913 222.608 184.113 221.552 187.473 218.288C188.913 216.848 189.969 214.928 190.737 213.008C192.945 207.824 194.001 202.16 194.961 196.688C196.209 188.912 196.977 181.04 196.977 173.168C197.073 166.064 196.305 158.672 193.809 152.048C190.929 144.752 182.961 139.952 176.241 144.08C173.457 145.808 171.441 148.784 170.193 151.76C168.081 156.656 167.505 162.224 167.601 167.504C167.601 176.336 169.041 185.168 171.825 193.424C172.208 194.576 170.385 192.656 169.905 191.6C167.409 186.224 166.161 180.272 165.489 174.32C165.009 170.672 158.193 156.944 156.465 153.584C153.489 148.016 145.809 142.928 139.761 144.56C137.649 145.136 135.729 146.384 134.097 147.824C131.121 150.32 129.009 153.776 127.377 157.328C123.729 165.776 122.769 175.472 122.961 184.688C123.153 192.272 123.825 199.952 126.033 207.248C127.089 210.608 128.433 213.968 130.737 216.752C132.369 218.672 134.865 220.4 137.457 220.496C139.953 220.592 142.545 219.632 144.465 218.096C146.577 216.368 148.017 213.872 148.977 211.376C151.377 205.04 151.857 197.648 150.417 191.024C150.033 188.912 149.457 186.8 148.689 184.88C148.401 184.304 147.345 181.904 147.345 181.328C147.345 181.04 147.633 180.656 147.921 180.464C151.953 185.456 153.585 192.08 156.561 197.744C159.153 202.64 162.225 207.344 165.393 211.856C167.025 214.16 168.753 216.368 170.673 218.384C171.345 219.056 172.113 219.728 172.881 220.208ZM234.564 224.336C224.484 235.184 206.532 230.288 203.747 215.792C202.691 210.032 204.035 204.08 204.803 198.224C207.012 180.944 215.268 163.76 226.788 150.608C229.572 147.536 232.26 144.272 235.62 142.064C238.212 140.336 241.284 139.472 244.26 139.088C249.156 138.608 254.531 139.472 258.948 141.68C262.596 143.504 265.668 146.288 268.356 149.36C272.58 154.064 275.94 159.632 278.82 165.392C282.66 173.072 285.636 181.232 287.748 189.584C289.38 196.208 290.436 203.024 290.148 209.84C290.052 212.912 289.86 216.08 288.9 218.96C288.324 220.784 287.268 222.608 285.924 223.952C283.524 226.16 280.068 227.312 276.9 227.888C271.716 228.752 266.34 228.56 261.348 227.312C258.372 226.64 255.492 224.816 253.284 222.704C248.868 218.48 245.796 213.104 242.244 208.112C240.804 213.872 238.596 219.92 234.564 224.336ZM214.212 220.208C215.364 220.784 216.804 221.072 218.148 220.88C220.356 220.688 222.564 219.44 224.292 218C226.98 215.888 229.188 213.2 230.82 210.224C233.028 206.48 234.372 202.16 235.62 198.032C235.812 197.456 236.58 194.96 236.58 194.288C236.58 194 236.1 193.712 235.812 193.52C234.948 193.232 234.084 193.136 233.124 193.04C235.14 192.752 246.66 191.024 248.58 190.64C248.868 190.64 249.252 191.12 249.444 191.216C247.908 192.176 246.276 192.944 244.644 193.52C245.604 198.8 246.372 204.272 248.292 209.264C249.54 212.624 251.556 215.984 254.531 218.096C256.644 219.632 259.236 220.88 261.828 220.688C264.42 220.4 267.012 218.864 268.836 216.944C270.756 214.832 272.196 212.048 272.772 209.168C273.444 206.096 273.444 202.736 273.348 199.568C273.06 194.576 272.292 189.584 270.948 184.784C269.604 179.888 261.54 159.152 258.852 154.928C256.548 151.28 253.284 148.016 249.444 146C247.236 144.848 244.548 144.08 242.148 144.656C238.5 145.52 235.428 148.112 232.836 150.8C223.524 160.784 216.42 173.36 212.58 186.512C210.756 192.656 209.508 198.992 209.124 205.424C209.028 208.208 208.932 211.184 209.508 213.968C209.796 215.312 210.276 216.752 211.236 217.904C212.1 218.768 213.06 219.632 214.212 220.208ZM249.348 163.376C253.476 170.672 248.196 179.792 239.844 179.792C232.356 179.792 229.284 170.864 232.932 164.144C235.332 159.824 240.42 156.56 244.836 158.768C246.756 159.728 248.388 161.456 249.348 163.376ZM237.732 172.496C238.116 173.936 239.268 174.8 240.612 174.8C243.396 174.8 246.18 172.304 246.468 169.52C246.66 168.464 246.276 167.12 245.412 166.352C244.644 165.776 243.588 165.584 242.628 165.68C239.364 165.776 236.772 169.328 237.732 172.496ZM315.03 229.712C312.822 230.576 305.43 229.616 303.126 228.944C300.342 228.08 296.31 221.936 295.158 219.152C293.814 215.984 292.182 212.912 291.03 209.552C289.398 204.464 288.534 199.184 287.957 193.808C287.093 184.208 287.381 174.32 289.206 164.816C290.262 159.248 291.894 153.584 294.678 148.592C296.502 145.328 298.806 142.16 301.974 140.144C304.278 138.704 307.062 137.84 309.75 137.648C316.086 137.072 322.71 139.568 326.934 144.176C330.198 147.632 332.022 152.24 333.27 156.752C335.094 163.28 335.862 170.096 336.054 176.816C336.246 184.208 335.766 191.6 334.518 198.896C333.462 204.944 331.926 211.088 329.238 216.56C327.702 219.632 325.878 222.704 323.382 225.008C320.982 227.12 318.006 228.656 315.03 229.712ZM303.126 216.944C303.99 217.424 305.142 217.52 306.198 217.328C308.886 216.752 311.574 215.312 313.398 213.296C315.702 210.704 317.142 207.152 317.814 203.696C319.254 196.4 320.406 189.104 320.694 181.712C320.982 173.936 320.31 166.16 319.254 158.48C318.87 155.792 316.374 147.92 314.454 146C313.302 144.752 311.574 143.888 309.846 143.792C308.214 143.792 306.582 144.656 305.334 145.712C303.03 147.536 301.398 150.032 299.958 152.624C298.038 156.08 296.502 159.728 295.254 163.568C291.798 173.744 291.605 185.264 293.622 195.824C294.582 201.2 298.23 214.352 303.126 216.944ZM375.349 232.304C368.917 232.4 362.293 232.208 355.957 230.672C353.173 230 350.293 229.232 348.085 227.408C346.645 226.256 345.397 225.008 344.149 223.76C342.133 221.648 341.077 218.768 340.021 216.08C338.389 211.568 337.141 206.864 336.085 202.16C335.317 198.128 334.549 194.096 334.357 189.968C333.973 179.888 334.357 169.712 336.373 159.92C337.237 155.696 338.293 151.376 340.885 147.92C343.093 145.04 345.877 142.256 349.141 140.624C357.685 136.4 368.629 138.416 375.157 145.424C376.885 147.248 378.229 149.456 378.805 151.856C380.341 157.424 381.013 163.28 380.821 169.04C380.725 173.648 379.957 178.256 378.901 182.768C378.133 185.744 377.269 188.624 376.501 191.6C383.125 190.448 390.325 190.352 396.469 192.944C399.637 194.288 402.229 196.88 404.533 199.472C406.933 202.448 407.893 206.672 407.893 210.512C407.797 214.448 406.261 218.576 403.861 221.648C400.885 225.392 396.469 227.984 392.053 229.52C386.773 231.44 381.013 232.208 375.349 232.304ZM361.621 220.304C366.709 220.592 371.893 220.592 376.981 220.016C380.821 219.536 384.757 218.768 388.309 217.232C390.805 216.176 393.205 214.64 394.837 212.528C396.085 210.896 396.853 208.88 397.045 206.96C397.429 202.544 395.413 196.208 391.285 194.768C387.253 193.328 382.645 193.328 378.517 194.288C372.277 195.824 366.325 198.512 360.949 201.968C360.853 202.064 360.469 201.296 360.565 201.2C362.101 199.184 364.501 197.648 365.557 195.344C366.037 194.384 367.189 189.296 367.381 188.24C368.917 178.928 369.013 169.328 368.533 159.92C368.341 155.984 367.189 151.856 365.077 148.4C363.829 146.384 362.197 144.464 359.989 143.408C358.453 142.64 356.533 142.352 354.805 142.736C352.117 143.312 349.717 145.232 347.893 147.248C345.301 149.936 343.285 153.104 342.037 156.56C340.501 160.784 339.637 165.392 339.349 170C338.773 176.816 339.349 183.728 339.733 190.64C340.213 197.648 340.885 205.04 344.245 211.28C345.397 213.2 347.029 214.928 348.949 216.272C352.597 218.768 357.205 220.016 361.621 220.304ZM461.019 228.08C453.915 230.96 445.755 231.728 438.075 230.672C431.451 229.808 424.827 227.6 418.971 224.24C412.827 220.688 407.931 214.832 405.435 208.112C403.899 203.792 403.227 198.8 404.379 194.384C405.147 191.6 406.779 188.912 408.987 186.992C411.099 185.168 413.883 184.016 416.667 183.44C415.131 179.792 412.731 176.624 411.003 173.072C409.563 170.192 408.891 166.928 408.891 163.664C408.987 158.864 410.715 153.968 413.403 150.032C415.611 146.96 418.683 144.272 422.043 142.448C428.667 138.896 436.347 136.688 443.931 136.88C448.059 136.976 452.187 137.936 456.123 139.376C461.595 141.296 466.971 144.272 470.907 148.592C473.211 150.992 475.131 153.968 476.283 157.136C477.723 160.688 478.395 164.528 478.395 168.368C478.395 171.248 477.627 174.224 476.475 176.912C475.611 179.024 474.267 181.232 472.251 182.576C475.419 185.744 477.723 189.68 479.355 193.808C480.603 197.072 481.563 200.72 481.179 204.272C480.603 209.264 478.491 214.352 475.227 218.096C471.387 222.416 466.395 225.968 461.019 228.08ZM427.515 217.616C434.427 219.824 441.915 219.92 448.923 217.904C453.147 216.752 457.371 214.64 460.731 211.76C462.555 210.224 464.283 208.4 465.435 206.288C467.259 202.928 468.315 198.512 466.971 194.96C465.723 191.6 463.611 188.528 461.019 186.128C457.371 182.672 452.667 180.752 448.443 178.064C446.043 176.432 443.643 174.512 442.011 172.016C440.283 169.232 439.419 165.776 439.227 162.416C439.227 162.32 440.283 162.512 440.283 162.704C441.915 165.872 443.355 169.424 445.947 171.824C447.675 173.456 450.171 174.416 452.475 174.416C454.491 174.416 456.507 173.648 458.235 172.496C461.019 170.672 463.131 167.696 463.995 164.336C466.203 155.984 459.099 146.192 451.131 142.736C446.235 140.624 440.379 140.624 435.195 141.68C429.819 142.832 424.539 145.424 420.411 149.072C418.299 150.992 416.475 153.392 415.323 155.984C413.307 160.784 413.787 166.928 415.995 171.728C418.491 177.2 423.003 181.712 428.475 184.112C430.491 184.976 432.699 185.648 434.523 186.992C439.899 190.832 444.315 196.88 445.851 203.312C445.947 203.408 444.891 203.696 444.795 203.6C441.915 200.048 439.899 195.824 436.731 192.464C435.675 191.312 434.427 190.256 432.987 189.488C429.147 187.376 424.155 186.704 419.739 187.664C416.859 188.336 413.883 189.776 411.867 191.984C410.331 193.712 409.371 196.112 409.179 198.512C408.795 203.12 413.019 210.896 417.051 213.2C420.315 215.12 423.963 216.464 427.515 217.616Z" fill="white"/>
<path d="M274.164 342.832C265.716 346 256.116 346.096 247.188 344.944C244.692 344.656 242.292 343.792 239.988 342.832C237.204 341.68 234.516 340.336 232.116 338.512C230.388 337.264 228.756 335.728 227.7 333.808C224.916 328.336 223.38 322.192 222.228 316.048C220.788 308.08 220.02 299.824 220.212 291.568C220.404 286.192 220.884 280.72 222.228 275.44C223.092 272.176 224.532 268.912 226.548 266.128C229.044 262.672 232.596 259.792 236.436 257.872C242.868 254.608 250.356 253.552 257.556 253.84C265.332 254.128 273.3 255.952 280.308 259.312C282.516 260.368 284.628 261.712 286.452 263.248C287.892 264.496 289.332 266.032 290.292 267.76C293.748 274.48 294.42 283.216 292.02 290.416C291.156 293.2 289.62 295.984 287.604 298.096C289.332 301.264 291.156 304.528 292.5 307.888C293.46 310.384 294.228 313.072 294.228 315.664C294.228 321.136 292.692 326.8 289.716 331.408C286.26 336.784 280.212 340.624 274.164 342.832ZM244.596 334.768C247.86 335.152 251.22 334.96 254.484 334.576C258.996 334.192 263.604 333.04 267.636 330.736C270.612 329.008 273.396 326.608 275.412 323.728C276.948 321.712 277.812 319.312 278.388 316.912C279.252 313.936 279.636 310.768 279.444 307.696C279.348 305.2 278.676 302.608 277.236 300.592C274.74 297.04 270.42 294.64 266.196 293.872C266.004 293.776 265.716 293.392 265.716 293.2C265.524 292.816 266.196 292.816 266.58 292.816C268.98 292.816 271.476 292.72 273.588 291.664C275.604 290.608 277.14 288.592 278.1 286.48C279.444 283.792 279.636 280.624 279.636 277.648C279.636 275.344 279.348 272.944 278.388 270.736C277.332 268.144 275.316 265.744 273.012 264.112C269.268 261.424 264.564 260.272 259.956 259.888C254.868 259.6 249.684 259.984 244.596 260.944C241.332 261.712 237.78 262.672 235.188 264.88C232.692 266.992 231.348 270.352 230.292 273.424C228.66 278.416 227.796 283.792 227.412 289.072C226.74 296.656 226.644 304.432 227.892 311.92C228.564 316.72 230.004 321.424 232.308 325.648C233.652 328.144 235.476 330.544 237.684 332.368C239.508 333.904 242.1 334.576 244.596 334.768ZM251.508 286.384C249.204 287.152 246.612 286.96 244.308 286.192C243.444 285.904 242.58 285.52 242.004 284.752C241.524 284.08 241.14 283.12 240.852 282.256C240.18 280.24 239.796 277.936 240.372 275.824C240.852 274.192 241.62 272.752 242.484 271.408C243.252 270.352 244.116 269.2 245.172 268.624C246.42 267.952 247.956 267.664 249.396 267.856C252.66 268.048 256.116 270.16 257.556 273.04C260.244 278.224 257.076 284.56 251.508 286.384ZM246.516 281.392C247.188 282.256 248.724 282.16 249.684 281.872C251.604 281.296 253.716 280.144 254.196 278.224C254.676 276.592 254.1 274.48 252.468 274C250.452 273.328 247.668 275.152 246.612 277.072C245.844 278.32 245.556 280.336 246.516 281.392ZM249.012 314.512C243.444 315.28 239.22 310 240.564 304.624C241.524 300.4 244.98 296.944 249.204 295.888C251.412 295.312 254.196 295.6 255.924 297.04C257.46 298.288 258.228 300.496 258.42 302.512C259.092 308.368 254.868 313.84 249.012 314.512ZM246.708 308.08C247.476 309.616 249.684 309.712 251.316 309.04C252.372 308.656 253.428 307.984 254.1 307.024C255.348 305.296 255.348 302.704 253.524 301.648C251.796 300.688 249.108 301.648 247.86 303.184C246.9 304.336 246.036 306.736 246.708 308.08ZM344.82 346.672C341.556 348.208 337.62 349.264 334.068 348.592C332.052 348.208 330.036 347.152 328.308 345.904C325.332 343.792 322.836 341.104 320.724 338.128C318.996 335.728 317.46 332.944 316.788 330.064C314.772 322.096 315.348 313.744 315.828 305.488C309.204 298.672 301.62 292.72 296.148 284.944C294.228 282.256 292.212 279.376 291.348 276.112C290.292 272.656 290.484 268.912 291.732 265.552C293.076 261.904 295.764 258.544 298.932 256.336C303.156 253.264 308.724 251.728 313.908 251.92C316.788 252.016 319.764 252.784 322.452 254.032C327.444 256.144 331.956 259.6 335.7 263.632C336.084 264.112 336.66 264.592 337.236 264.784C338.004 264.976 338.868 264.784 339.636 264.4C340.788 263.824 341.748 263.056 342.708 262.192C346.068 259.024 349.812 256.144 353.94 254.224C356.916 252.88 360.372 252.016 363.636 252.4C367.188 252.88 370.644 254.704 373.236 257.2C377.46 261.424 380.244 267.664 380.244 273.616C380.34 276.208 379.668 278.896 378.42 281.2C374.004 289.456 367.38 296.368 361.044 303.28C360.084 304.24 356.628 307.6 356.34 308.944C356.052 310.48 356.148 318.736 356.052 320.368C355.956 324.976 355.572 329.68 354.228 334.192C353.268 337.36 351.636 340.528 349.524 343.12C348.276 344.656 346.548 345.808 344.82 346.672ZM320.052 323.056C320.82 329.392 323.892 337.264 330.324 336.784C333.492 336.592 336.564 334.192 338.388 331.504C340.404 328.432 341.46 324.688 342.036 321.04C342.804 315.952 342.612 310.672 342.228 305.488C341.94 299.44 354.036 290.032 358.452 285.808C360.852 283.6 362.964 281.104 364.788 278.32C366.42 275.92 367.764 273.328 368.34 270.544C369.588 264.592 366.228 258.352 360.18 257.776C357.396 257.488 354.516 258.64 352.02 259.984C345.684 263.728 340.692 269.68 336.564 275.824C334.068 279.376 331.764 283.216 330.036 287.248C330.036 287.344 329.172 287.632 329.076 287.536C328.98 287.344 328.5 286.96 328.596 286.768C329.268 284.272 330.804 281.968 331.572 279.376C332.052 277.84 332.052 275.92 331.284 274.48C329.076 269.776 325.236 265.744 321.012 262.768C317.364 260.272 313.044 258.256 308.724 258.352C300.948 258.544 294.996 265.552 296.628 273.136C297.3 276.208 299.124 278.992 301.044 281.488C303.636 285.04 306.804 288.112 310.068 291.088C312.756 293.392 315.54 295.696 318.612 297.424C319.188 297.808 319.668 298.288 319.86 298.96C320.532 300.496 320.436 302.32 320.34 303.952C319.668 310.288 319.188 316.816 320.052 323.056Z" fill="white"/>
<path d="M240.706 462.056C236.194 462.92 231.202 461.96 227.074 459.944C224.194 458.6 221.506 456.584 219.298 454.184C209.314 443.528 200.962 431.144 194.626 417.896C192.706 413.864 185.89 395.72 185.314 391.304C184.546 386.312 185.41 380.84 187.81 376.424C189.25 373.832 191.458 371.528 194.146 370.088C196.354 368.936 199.138 368.456 201.73 368.552C207.394 368.648 213.25 369.416 218.338 371.816C221.602 373.352 224.098 376.232 226.21 379.208C229.09 383.24 231.298 387.752 233.602 392.168C237.25 385.064 241.762 378.056 247.906 372.968C249.826 371.432 252.322 370.28 254.722 369.8C260.002 368.744 266.05 369.704 270.562 372.68C273.826 374.888 276.226 378.536 277.378 382.184C279.394 388.424 279.01 395.336 277.57 401.672C274.69 415.016 270.082 428.168 263.17 439.88C259.426 446.12 255.01 452.072 249.826 457.16C247.33 459.56 244.066 461.384 240.706 462.056ZM226.882 448.232C229.57 448.808 232.45 448.52 235.042 447.656C239.746 445.928 243.97 442.28 246.85 438.152C250.978 432.488 254.53 426.44 257.986 420.296C262.114 413 265.378 405.128 267.106 396.872C267.874 393.704 268.354 390.344 268.162 387.08C267.97 384.68 267.49 382.184 266.146 380.168C264.898 378.344 263.074 376.904 261.058 376.136C258.466 375.176 255.49 375.176 252.898 376.136C251.074 376.808 249.346 378.056 247.81 379.4C243.874 383.048 241.09 387.848 238.786 392.648C236.29 397.736 234.37 403.112 232.834 408.488C231.586 412.904 230.626 417.416 230.338 421.928C230.338 422.024 229.378 421.544 229.378 421.448C229.09 419.432 228.514 417.32 228.706 415.304C228.802 414.056 228.226 412.904 227.842 411.848C227.554 411.08 225.73 406.952 225.538 406.184C223.042 397.544 220.162 388.424 214.21 381.608C212.386 379.496 210.178 377.576 207.778 376.136C205.57 374.792 202.786 374.12 200.098 374.408C198.85 374.504 197.602 374.888 196.546 375.56C191.074 379.112 189.922 390.152 191.362 396.392C193.57 405.8 197.89 414.536 202.498 422.984C204.514 426.632 215.65 440.936 218.722 443.816C221.026 445.928 223.906 447.56 226.882 448.232ZM303.451 460.712C301.243 461.576 293.851 460.616 291.547 459.944C288.763 459.08 284.731 452.936 283.579 450.152C282.235 446.984 280.603 443.912 279.451 440.552C277.819 435.464 276.955 430.184 276.379 424.808C275.515 415.208 275.803 405.32 277.627 395.816C278.683 390.248 280.315 384.584 283.099 379.592C284.923 376.328 287.227 373.16 290.395 371.144C292.699 369.704 295.483 368.84 298.171 368.648C304.507 368.072 311.131 370.568 315.355 375.176C318.619 378.632 320.443 383.24 321.691 387.752C323.515 394.28 324.283 401.096 324.475 407.816C324.667 415.208 324.187 422.6 322.939 429.896C321.883 435.944 320.347 442.088 317.659 447.56C316.123 450.632 314.299 453.704 311.803 456.008C309.403 458.12 306.427 459.656 303.451 460.712ZM291.547 447.944C292.411 448.424 293.563 448.52 294.619 448.328C297.307 447.752 299.995 446.312 301.819 444.296C304.123 441.704 305.563 438.152 306.235 434.696C307.675 427.4 308.827 420.104 309.115 412.712C309.403 404.936 308.731 397.16 307.675 389.48C307.291 386.792 304.795 378.92 302.875 377C301.723 375.752 299.995 374.888 298.267 374.792C296.635 374.792 295.003 375.656 293.755 376.712C291.451 378.536 289.819 381.032 288.379 383.624C286.459 387.08 284.923 390.728 283.675 394.568C280.219 404.744 280.027 416.264 282.043 426.824C283.003 432.2 286.651 445.352 291.547 447.944ZM401.979 461.672C395.259 463.688 387.003 462.344 381.243 458.408C375.963 454.952 370.587 451.208 366.651 446.216C363.003 450.536 359.643 455.144 355.035 458.312C347.355 463.496 336.507 463.112 329.211 457.256C325.851 454.568 323.163 450.44 322.299 446.216C321.723 443.144 322.011 439.88 322.779 436.808C324.123 431.624 326.715 426.824 329.883 422.6C333.243 418.184 337.371 414.152 342.171 411.272C338.811 409.352 335.451 407.336 332.475 404.84C329.211 402.056 326.331 398.6 324.507 394.664C323.259 392.264 322.395 389.48 322.395 386.696C322.395 383.72 323.259 380.648 324.795 378.152C326.235 375.656 328.443 373.448 330.843 371.816C332.955 370.472 335.547 369.896 338.139 369.704C341.403 369.416 344.859 369.704 348.123 370.472C353.115 371.72 357.243 375.464 360.891 379.112C362.427 380.648 364.059 378.152 365.595 376.616C367.515 374.696 375.291 369.608 377.979 368.936C394.107 364.808 408.507 379.784 404.379 395.912C403.515 398.984 401.595 401.864 399.483 404.36C396.315 408.008 392.667 411.176 389.595 414.92C397.851 417.32 405.723 422.984 410.139 430.376C412.539 434.504 414.075 439.4 413.979 444.2C413.883 448.136 412.443 452.072 410.427 455.336C408.603 458.408 405.339 460.712 401.979 461.672ZM333.147 451.016C335.643 451.976 338.523 451.976 341.115 451.304C343.707 450.632 346.107 449.192 348.123 447.368C352.155 443.72 355.035 439.016 359.067 435.368C358.203 434.024 357.531 432.584 357.051 431.144C356.955 430.76 356.667 429.704 356.859 429.32C357.147 428.648 358.011 429.512 358.491 429.992C360.123 431.624 360.987 433.832 362.523 435.56C368.955 442.472 377.595 448.52 386.907 450.344C389.499 450.824 392.091 451.208 394.683 451.016C404.667 450.152 404.955 437 399.291 428.552C397.659 426.152 395.067 424.328 392.667 422.6C388.923 420.2 384.987 418.088 380.955 416.456C379.227 415.88 377.403 415.208 375.579 415.016C374.331 414.824 372.699 413.96 373.563 412.904C379.323 405.992 386.331 400.04 391.035 392.456C392.859 389.48 394.395 386.12 394.203 382.664C393.915 377.96 389.787 373.544 384.987 373.16C381.723 372.776 378.363 374.12 375.579 375.752C370.683 378.728 366.555 383.336 363.771 388.328C360.891 393.32 359.355 399.08 357.915 404.744C357.723 404.456 356.475 403.784 356.475 403.496C356.283 401.96 358.011 395.432 358.203 393.896C358.395 392.456 358.107 390.92 357.627 389.48C355.611 383.336 350.043 377.768 343.899 376.04C340.155 375.08 335.643 375.944 332.379 378.056C330.171 379.496 328.251 381.992 327.675 384.584C327.195 387.08 327.963 389.768 329.115 391.976C330.651 394.952 332.763 397.64 335.163 400.04C339.387 404.552 344.379 408.392 349.563 411.944C344.955 415.016 340.443 418.472 336.603 422.504C330.555 428.744 323.259 440.072 328.251 447.272C329.403 449 331.227 450.344 333.147 451.016Z" fill="white"/>
</svg>
