<svg width="200" height="200" viewBox="0 0 300 300" fill="none" xmlns="http://www.w3.org/2000/svg">
<g id="orderPressOn">
<circle id="Ellipse 8" cx="150" cy="150" r="150" fill="#FDE5AC"/>
<path id="Order" d="M108.2 116.12C105.347 116.12 102.933 115.493 100.96 114.24C98.9867 112.987 97.4933 111.253 96.48 109.04C95.4667 106.827 94.96 104.28 94.96 101.4C94.96 98.5467 95.4667 96.0133 96.48 93.8C97.4933 91.56 98.9867 89.8133 100.96 88.56C102.933 87.28 105.347 86.64 108.2 86.64C111.053 86.64 113.453 87.28 115.4 88.56C117.373 89.8133 118.867 91.56 119.88 93.8C120.893 96.0133 121.4 98.5467 121.4 101.4C121.4 104.28 120.893 106.827 119.88 109.04C118.867 111.253 117.373 112.987 115.4 114.24C113.453 115.493 111.053 116.12 108.2 116.12ZM100 100.76C100 101.587 100.2 102.373 100.6 103.12C101 103.84 101.787 104.427 102.96 104.88C104.133 105.307 105.88 105.52 108.2 105.52C110.52 105.52 112.253 105.307 113.4 104.88C114.573 104.427 115.36 103.84 115.76 103.12C116.16 102.373 116.36 101.587 116.36 100.76C116.36 99.9067 116.16 99.1467 115.76 98.48C115.36 97.7867 114.573 97.24 113.4 96.84C112.253 96.4133 110.52 96.2 108.2 96.2C105.88 96.2 104.133 96.4133 102.96 96.84C101.787 97.24 101 97.7867 100.6 98.48C100.2 99.1467 100 99.9067 100 100.76ZM127.282 116C126.029 116 125.056 115.64 124.362 114.92C123.669 114.2 123.322 113.293 123.322 112.2V99.08C123.322 97.9333 123.669 96.9867 124.362 96.24C125.056 95.4667 126.029 95.08 127.282 95.08C128.536 95.08 129.496 95.4667 130.162 96.24C130.829 96.9867 131.162 97.9067 131.162 99V99.84H131.922C132.029 98.4267 132.562 97.2667 133.522 96.36C134.482 95.4533 135.616 95 136.922 95C138.229 95 139.256 95.4 140.002 96.2C140.776 97 141.162 98.0667 141.162 99.4C141.162 100.653 140.802 101.693 140.082 102.52C139.362 103.347 138.442 103.76 137.322 103.76C136.389 103.76 135.602 103.547 134.962 103.12C134.349 102.667 133.896 102.147 133.602 101.56C132.749 101.453 132.122 101.547 131.722 101.84C131.349 102.107 131.162 102.653 131.162 103.48V112.2C131.162 113.293 130.829 114.2 130.162 114.92C129.496 115.64 128.536 116 127.282 116ZM149.036 116C144.183 116 141.756 112.427 141.756 105.28C141.756 102.187 142.356 99.72 143.556 97.88C144.756 96.0133 146.556 95.08 148.956 95.08C150.263 95.08 151.316 95.3467 152.116 95.88C152.943 96.4133 153.583 97.1467 154.036 98.08C154.516 98.9867 154.863 100.04 155.076 101.24L155.196 101.2V89.08C155.196 87.9867 155.516 87.0667 156.156 86.32C156.823 85.5467 157.783 85.16 159.036 85.16C160.263 85.16 161.169 85.5467 161.756 86.32C162.369 87.0667 162.676 88.0133 162.676 89.16V107.16C162.676 108.067 162.743 108.907 162.876 109.68C163.036 110.427 163.156 111.173 163.236 111.92C163.316 112.933 163.103 113.813 162.596 114.56C162.116 115.28 161.249 115.747 159.996 115.96C158.369 116.227 157.156 115.947 156.356 115.12C155.583 114.293 155.196 113.067 155.196 111.44V109.96H154.436C154.436 111.907 153.943 113.4 152.956 114.44C151.996 115.48 150.689 116 149.036 116ZM148.436 104.92C148.436 105.747 148.689 106.36 149.196 106.76C149.703 107.16 150.609 107.36 151.916 107.36C153.249 107.36 154.169 107.16 154.676 106.76C155.183 106.36 155.436 105.747 155.436 104.92C155.436 104.067 155.183 103.453 154.676 103.08C154.196 102.68 153.289 102.48 151.956 102.48C150.623 102.48 149.703 102.68 149.196 103.08C148.689 103.453 148.436 104.067 148.436 104.92ZM164.998 105.6C164.998 103.493 165.411 101.64 166.238 100.04C167.091 98.44 168.291 97.1867 169.838 96.28C171.411 95.3733 173.278 94.92 175.438 94.92C177.118 94.92 178.625 95.2267 179.958 95.84C181.318 96.4533 182.385 97.28 183.158 98.32C183.931 99.3333 184.318 100.453 184.318 101.68C184.318 102.96 183.945 103.867 183.198 104.4C182.451 104.933 181.345 105.2 179.878 105.2H171.478C171.478 105.893 171.745 106.467 172.278 106.92C172.838 107.373 173.771 107.6 175.078 107.6C175.745 107.6 176.358 107.533 176.918 107.4C177.505 107.267 178.091 107.147 178.678 107.04C179.291 106.907 179.971 106.84 180.718 106.84C181.785 106.84 182.665 107.227 183.358 108C184.051 108.747 184.398 109.787 184.398 111.12C184.398 112.693 183.585 113.92 181.958 114.8C180.358 115.68 178.251 116.12 175.638 116.12C173.798 116.12 172.065 115.76 170.438 115.04C168.838 114.32 167.531 113.187 166.518 111.64C165.505 110.067 164.998 108.053 164.998 105.6ZM177.958 103.88C178.358 103.88 178.491 103.693 178.358 103.32C178.251 102.947 177.931 102.56 177.398 102.16C176.865 101.76 176.091 101.56 175.078 101.56C173.905 101.56 173.025 101.813 172.438 102.32C171.878 102.827 171.598 103.347 171.598 103.88H177.958ZM190.524 116C189.271 116 188.298 115.64 187.604 114.92C186.911 114.2 186.564 113.293 186.564 112.2V99.08C186.564 97.9333 186.911 96.9867 187.604 96.24C188.298 95.4667 189.271 95.08 190.524 95.08C191.778 95.08 192.738 95.4667 193.404 96.24C194.071 96.9867 194.404 97.9067 194.404 99V99.84H195.164C195.271 98.4267 195.804 97.2667 196.764 96.36C197.724 95.4533 198.858 95 200.164 95C201.471 95 202.498 95.4 203.244 96.2C204.018 97 204.404 98.0667 204.404 99.4C204.404 100.653 204.044 101.693 203.324 102.52C202.604 103.347 201.684 103.76 200.564 103.76C199.631 103.76 198.844 103.547 198.204 103.12C197.591 102.667 197.138 102.147 196.844 101.56C195.991 101.453 195.364 101.547 194.964 101.84C194.591 102.107 194.404 102.653 194.404 103.48V112.2C194.404 113.293 194.071 114.2 193.404 114.92C192.738 115.64 191.778 116 190.524 116Z" fill="black"/>
<path id="Press-Ons" d="M59.56 157.76V162.76C59.56 164.147 59.1867 165.2 58.44 165.92C57.72 166.64 56.76 167 55.56 167H55.52C54.2133 167 53.1733 166.64 52.4 165.92C51.6533 165.2 51.28 164.147 51.28 162.76V157.12C51.28 154.293 51.7067 152.147 52.56 150.68C53.4133 149.213 54.4933 148.16 55.8 147.52L55.6 146.76H54.92C53.6933 146.76 52.72 146.373 52 145.6C51.3067 144.8 50.9467 143.72 50.92 142.36C50.8933 141.027 51.24 139.947 51.96 139.12C52.7067 138.293 53.6933 137.88 54.92 137.88H65.44C68.1333 137.88 70.32 138.693 72 140.32C73.7067 141.92 74.56 144.453 74.56 147.92C74.56 150.427 74.12 152.4 73.24 153.84C72.36 155.28 71.2 156.293 69.76 156.88C68.32 157.467 66.76 157.76 65.08 157.76H59.56ZM59.04 150.04C59.04 150.627 59.1467 151.013 59.36 151.2C59.6 151.387 60.0133 151.48 60.6 151.48H64.32C65.44 151.48 66.2533 151.227 66.76 150.72C67.2667 150.187 67.52 149.44 67.52 148.48C67.52 147.52 67.2667 146.787 66.76 146.28C66.2533 145.773 65.44 145.52 64.32 145.52H60.6C60.0133 145.52 59.6 145.6 59.36 145.76C59.1467 145.92 59.04 146.307 59.04 146.92V150.04ZM80.1963 167C78.9429 167 77.9696 166.64 77.2763 165.92C76.5829 165.2 76.2363 164.293 76.2363 163.2V150.08C76.2363 148.933 76.5829 147.987 77.2763 147.24C77.9696 146.467 78.9429 146.08 80.1963 146.08C81.4496 146.08 82.4096 146.467 83.0763 147.24C83.7429 147.987 84.0763 148.907 84.0763 150V150.84H84.8363C84.9429 149.427 85.4763 148.267 86.4363 147.36C87.3963 146.453 88.5296 146 89.8363 146C91.1429 146 92.1696 146.4 92.9163 147.2C93.6896 148 94.0763 149.067 94.0763 150.4C94.0763 151.653 93.7163 152.693 92.9963 153.52C92.2763 154.347 91.3563 154.76 90.2363 154.76C89.3029 154.76 88.5163 154.547 87.8763 154.12C87.2629 153.667 86.8096 153.147 86.5163 152.56C85.6629 152.453 85.0363 152.547 84.6363 152.84C84.2629 153.107 84.0763 153.653 84.0763 154.48V163.2C84.0763 164.293 83.7429 165.2 83.0763 165.92C82.4096 166.64 81.4496 167 80.1963 167ZM94.3575 156.6C94.3575 154.493 94.7708 152.64 95.5975 151.04C96.4508 149.44 97.6508 148.187 99.1975 147.28C100.771 146.373 102.638 145.92 104.798 145.92C106.478 145.92 107.984 146.227 109.318 146.84C110.678 147.453 111.744 148.28 112.518 149.32C113.291 150.333 113.678 151.453 113.678 152.68C113.678 153.96 113.304 154.867 112.558 155.4C111.811 155.933 110.704 156.2 109.238 156.2H100.838C100.838 156.893 101.104 157.467 101.638 157.92C102.198 158.373 103.131 158.6 104.438 158.6C105.104 158.6 105.718 158.533 106.278 158.4C106.864 158.267 107.451 158.147 108.038 158.04C108.651 157.907 109.331 157.84 110.078 157.84C111.144 157.84 112.024 158.227 112.718 159C113.411 159.747 113.758 160.787 113.758 162.12C113.758 163.693 112.944 164.92 111.318 165.8C109.718 166.68 107.611 167.12 104.998 167.12C103.158 167.12 101.424 166.76 99.7975 166.04C98.1975 165.32 96.8908 164.187 95.8775 162.64C94.8642 161.067 94.3575 159.053 94.3575 156.6ZM107.318 154.88C107.718 154.88 107.851 154.693 107.718 154.32C107.611 153.947 107.291 153.56 106.758 153.16C106.224 152.76 105.451 152.56 104.438 152.56C103.264 152.56 102.384 152.813 101.798 153.32C101.238 153.827 100.958 154.347 100.958 154.88H107.318ZM125.652 167.52C123.812 167.52 122.106 167.347 120.532 167C118.986 166.627 117.746 166.053 116.812 165.28C115.879 164.48 115.412 163.427 115.412 162.12C115.412 160.973 115.759 160.027 116.452 159.28C117.146 158.533 118.066 158.16 119.212 158.16C119.932 158.16 120.652 158.28 121.372 158.52C122.119 158.733 122.906 158.947 123.732 159.16C124.559 159.373 125.452 159.48 126.412 159.48C127.266 159.48 127.839 159.44 128.132 159.36C128.426 159.253 128.572 159.067 128.572 158.8C128.572 158.48 128.386 158.267 128.012 158.16C127.666 158.053 127.066 157.92 126.212 157.76L123.332 157.2C122.132 156.96 120.959 156.653 119.812 156.28C118.692 155.88 117.759 155.293 117.012 154.52C116.292 153.747 115.932 152.693 115.932 151.36C115.932 149.547 116.732 148.133 118.332 147.12C119.959 146.107 122.306 145.6 125.372 145.6C127.132 145.6 128.706 145.773 130.092 146.12C131.506 146.467 132.626 146.987 133.452 147.68C134.279 148.347 134.692 149.187 134.692 150.2C134.719 151.293 134.426 152.173 133.812 152.84C133.199 153.507 132.426 153.84 131.492 153.84C130.826 153.84 130.146 153.76 129.452 153.6C128.786 153.413 128.052 153.227 127.252 153.04C126.479 152.827 125.586 152.707 124.572 152.68C123.852 152.627 123.266 152.667 122.812 152.8C122.359 152.933 122.132 153.147 122.132 153.44C122.132 153.76 122.399 153.987 122.932 154.12C123.466 154.227 124.266 154.373 125.332 154.56L128.172 155.08C129.906 155.373 131.279 155.747 132.292 156.2C133.332 156.627 134.079 157.227 134.532 158C134.986 158.773 135.212 159.84 135.212 161.2C135.212 162.613 134.799 163.8 133.972 164.76C133.172 165.693 132.052 166.387 130.612 166.84C129.172 167.293 127.519 167.52 125.652 167.52ZM146.473 167.52C144.633 167.52 142.926 167.347 141.353 167C139.806 166.627 138.566 166.053 137.633 165.28C136.699 164.48 136.233 163.427 136.233 162.12C136.233 160.973 136.579 160.027 137.273 159.28C137.966 158.533 138.886 158.16 140.033 158.16C140.753 158.16 141.473 158.28 142.193 158.52C142.939 158.733 143.726 158.947 144.553 159.16C145.379 159.373 146.273 159.48 147.233 159.48C148.086 159.48 148.659 159.44 148.953 159.36C149.246 159.253 149.393 159.067 149.393 158.8C149.393 158.48 149.206 158.267 148.833 158.16C148.486 158.053 147.886 157.92 147.033 157.76L144.153 157.2C142.953 156.96 141.779 156.653 140.633 156.28C139.513 155.88 138.579 155.293 137.833 154.52C137.113 153.747 136.753 152.693 136.753 151.36C136.753 149.547 137.553 148.133 139.153 147.12C140.779 146.107 143.126 145.6 146.193 145.6C147.953 145.6 149.526 145.773 150.913 146.12C152.326 146.467 153.446 146.987 154.273 147.68C155.099 148.347 155.512 149.187 155.512 150.2C155.539 151.293 155.246 152.173 154.633 152.84C154.019 153.507 153.246 153.84 152.313 153.84C151.646 153.84 150.966 153.76 150.273 153.6C149.606 153.413 148.873 153.227 148.073 153.04C147.299 152.827 146.406 152.707 145.393 152.68C144.673 152.627 144.086 152.667 143.633 152.8C143.179 152.933 142.953 153.147 142.953 153.44C142.953 153.76 143.219 153.987 143.753 154.12C144.286 154.227 145.086 154.373 146.153 154.56L148.993 155.08C150.726 155.373 152.099 155.747 153.113 156.2C154.153 156.627 154.899 157.227 155.353 158C155.806 158.773 156.033 159.84 156.033 161.2C156.033 162.613 155.619 163.8 154.793 164.76C153.993 165.693 152.873 166.387 151.433 166.84C149.993 167.293 148.339 167.52 146.473 167.52ZM162.794 156.16C161.834 156.16 161.007 155.827 160.314 155.16C159.621 154.467 159.274 153.547 159.274 152.4C159.274 151.307 159.621 150.427 160.314 149.76C161.007 149.093 161.847 148.76 162.834 148.76H172.034C173.047 148.76 173.874 149.107 174.514 149.8C175.154 150.467 175.474 151.333 175.474 152.4C175.474 153.467 175.154 154.36 174.514 155.08C173.874 155.8 173.047 156.16 172.034 156.16H162.794ZM192.013 167.12C189.159 167.12 186.746 166.493 184.773 165.24C182.799 163.987 181.306 162.253 180.293 160.04C179.279 157.827 178.773 155.28 178.773 152.4C178.773 149.547 179.279 147.013 180.293 144.8C181.306 142.56 182.799 140.813 184.773 139.56C186.746 138.28 189.159 137.64 192.013 137.64C194.866 137.64 197.266 138.28 199.213 139.56C201.186 140.813 202.679 142.56 203.693 144.8C204.706 147.013 205.213 149.547 205.213 152.4C205.213 155.28 204.706 157.827 203.693 160.04C202.679 162.253 201.186 163.987 199.213 165.24C197.266 166.493 194.866 167.12 192.013 167.12ZM183.813 151.76C183.813 152.587 184.013 153.373 184.413 154.12C184.813 154.84 185.599 155.427 186.773 155.88C187.946 156.307 189.693 156.52 192.013 156.52C194.333 156.52 196.066 156.307 197.213 155.88C198.386 155.427 199.173 154.84 199.573 154.12C199.973 153.373 200.173 152.587 200.173 151.76C200.173 150.907 199.973 150.147 199.573 149.48C199.173 148.787 198.386 148.24 197.213 147.84C196.066 147.413 194.333 147.2 192.013 147.2C189.693 147.2 187.946 147.413 186.773 147.84C185.599 148.24 184.813 148.787 184.413 149.48C184.013 150.147 183.813 150.907 183.813 151.76ZM211.015 167C209.841 167 208.895 166.653 208.175 165.96C207.481 165.24 207.135 164.36 207.135 163.32V150.08C207.135 148.96 207.468 148.013 208.135 147.24C208.801 146.467 209.761 146.08 211.015 146.08C212.241 146.08 213.175 146.467 213.815 147.24C214.455 148.013 214.775 148.987 214.775 150.16V152.16H215.495C215.495 150.64 215.761 149.44 216.295 148.56C216.855 147.68 217.561 147.053 218.415 146.68C219.268 146.28 220.121 146.08 220.975 146.08C223.028 146.08 224.535 146.827 225.495 148.32C226.455 149.787 226.935 151.88 226.935 154.6V163.32C226.935 164.36 226.588 165.24 225.895 165.96C225.201 166.653 224.268 167 223.095 167C221.895 167 220.935 166.653 220.215 165.96C219.521 165.24 219.175 164.36 219.175 163.32V156.24C219.175 155.28 218.988 154.533 218.615 154C218.268 153.467 217.748 153.2 217.055 153.2C216.255 153.2 215.668 153.493 215.295 154.08C214.948 154.667 214.775 155.413 214.775 156.32V163.32C214.775 164.36 214.441 165.24 213.775 165.96C213.108 166.653 212.188 167 211.015 167ZM239.09 167.52C237.25 167.52 235.543 167.347 233.97 167C232.423 166.627 231.183 166.053 230.25 165.28C229.316 164.48 228.85 163.427 228.85 162.12C228.85 160.973 229.196 160.027 229.89 159.28C230.583 158.533 231.503 158.16 232.65 158.16C233.37 158.16 234.09 158.28 234.81 158.52C235.556 158.733 236.343 158.947 237.17 159.16C237.996 159.373 238.89 159.48 239.85 159.48C240.703 159.48 241.276 159.44 241.57 159.36C241.863 159.253 242.01 159.067 242.01 158.8C242.01 158.48 241.823 158.267 241.45 158.16C241.103 158.053 240.503 157.92 239.65 157.76L236.77 157.2C235.57 156.96 234.396 156.653 233.25 156.28C232.13 155.88 231.196 155.293 230.45 154.52C229.73 153.747 229.37 152.693 229.37 151.36C229.37 149.547 230.17 148.133 231.77 147.12C233.396 146.107 235.743 145.6 238.81 145.6C240.57 145.6 242.143 145.773 243.53 146.12C244.943 146.467 246.063 146.987 246.89 147.68C247.716 148.347 248.13 149.187 248.13 150.2C248.156 151.293 247.863 152.173 247.25 152.84C246.636 153.507 245.863 153.84 244.93 153.84C244.263 153.84 243.583 153.76 242.89 153.6C242.223 153.413 241.49 153.227 240.69 153.04C239.916 152.827 239.023 152.707 238.01 152.68C237.29 152.627 236.703 152.667 236.25 152.8C235.796 152.933 235.57 153.147 235.57 153.44C235.57 153.76 235.836 153.987 236.37 154.12C236.903 154.227 237.703 154.373 238.77 154.56L241.61 155.08C243.343 155.373 244.716 155.747 245.73 156.2C246.77 156.627 247.516 157.227 247.97 158C248.423 158.773 248.65 159.84 248.65 161.2C248.65 162.613 248.236 163.8 247.41 164.76C246.61 165.693 245.49 166.387 244.05 166.84C242.61 167.293 240.956 167.52 239.09 167.52Z" fill="black"/>
</g>
</svg>
